<?xml version="1.0" encoding="UTF-8" standalone="no"?>
<!-- Created with Inkscape (http://www.inkscape.org/) -->

<svg
   version="1.1"
   id="svg2"
   xml:space="preserve"
   width="1706.6667"
   height="1025.3333"
   viewBox="0 0 1706.6667 1025.3333"
   sodipodi:docname="widlochers.eps"
   xmlns:inkscape="http://www.inkscape.org/namespaces/inkscape"
   xmlns:sodipodi="http://sodipodi.sourceforge.net/DTD/sodipodi-0.dtd"
   xmlns="http://www.w3.org/2000/svg"
   xmlns:svg="http://www.w3.org/2000/svg"><defs
     id="defs6" /><sodipodi:namedview
     id="namedview4"
     pagecolor="#ffffff"
     bordercolor="#666666"
     borderopacity="1.0"
     inkscape:pageshadow="2"
     inkscape:pageopacity="0.0"
     inkscape:pagecheckerboard="0" /><g
     id="g8"
     inkscape:groupmode="layer"
     inkscape:label="ink_ext_XXXXXX"
     transform="matrix(1.3333333,0,0,-1.3333333,0,1025.3333)"><g
       id="g10"
       transform="scale(0.1)"><path
         d="M 12800,0 H 0 V 7690 H 12800 V 0"
         style="fill:#171c3b;fill-opacity:1;fill-rule:nonzero;stroke:none"
         id="path12" /><path
         d="m 4601.9,3938.5 c 20.87,45.93 36.19,116.93 25.05,169.82 -8.35,45.94 -27.84,65.43 -43.15,65.43 -29.23,0 -65.43,-47.33 -65.43,-115.54 0,-44.55 27.84,-157.3 58.47,-168.43 4.17,4.17 16.7,30.62 25.06,48.72 z m -384.2,384.2 c -2.79,-9.74 -8.36,-19.49 -13.93,-27.84 -11.13,-20.88 -13.92,-41.76 -4.17,-64.04 18.1,-41.76 33.41,-82.13 50.11,-123.89 6.96,-19.48 11.13,-38.97 19.49,-57.07 52.9,-140.59 109.97,-327.13 119.72,-357.75 5.56,-6.96 11.13,-12.53 19.48,-6.96 2.79,0 5.56,1.39 5.56,2.78 23.68,36.19 50.12,69.6 68.22,109.97 8.35,18.1 22.27,43.15 9.74,69.61 -32.01,68.2 -77.96,144.76 -38.97,263.09 26.44,76.56 66.82,132.24 126.67,132.24 130.86,0 148.94,-148.95 137.81,-215.77 -6.95,-37.58 -12.52,-76.56 -25.05,-112.75 -9.75,-22.27 -16.71,-45.93 -26.45,-68.21 -11.14,-26.45 -15.31,-38.98 -4.18,-66.81 11.14,-23.67 20.88,-59.86 30.63,-83.53 9.74,-25.06 22.27,-47.33 32.01,-72.38 51.51,41.76 57.08,172.61 123.89,352.18 19.49,50.12 27.85,189.32 27.85,204.63 0,58.46 -2.79,101.61 -34.8,125.28 -19.49,15.31 -16.71,51.51 6.95,57.07 34.81,9.75 62.65,5.57 98.84,-1.39 29.23,-5.56 36.19,-25.05 52.9,-12.53 55.67,43.16 167.04,26.45 122.49,-50.11 -22.27,-36.19 -33.4,-5.56 -77.95,-146.16 -5.57,-19.49 -9.74,-38.98 -16.71,-58.47 -2.78,-13.92 -23.66,-70.99 -33.4,-109.97 -4.18,-12.53 -82.13,-293.71 -141.99,-437.1 -12.53,-27.84 -22.28,-58.46 -22.28,-90.48 -1.38,-23.66 2.79,-58.46 16.71,-79.34 6.96,-8.36 16.71,-16.71 25.05,-34.8 4.19,-11.14 5.57,-20.88 -2.77,-30.63 -15.32,-9.75 -27.84,-15.31 -47.33,-15.31 -20.89,0 -40.37,15.31 -52.9,29.23 -6.96,8.36 -19.49,9.75 -26.45,2.79 -4.18,-4.18 -8.35,-6.96 -9.74,-9.75 -32.02,-38.98 -121.11,-29.23 -90.49,8.35 51.5,65.43 -1.39,231.08 -23.66,283.98 -9.74,23.66 -23.67,50.11 -33.41,69.6 -5.57,11.14 -22.28,12.53 -27.84,1.39 -65.43,-111.36 -97.44,-136.42 -101.62,-236.64 -1.39,-23.67 8.35,-44.55 25.05,-62.65 4.19,-5.56 9.75,-8.35 13.93,-12.52 16.7,-18.1 1.39,-55.69 -20.89,-66.82 -15.31,-6.96 -44.54,-12.53 -73.77,8.35 -11.13,8.35 -13.92,8.35 -26.45,1.4 -30.63,-19.5 -34.8,-16.71 -66.81,-16.71 -34.81,0 -73.78,32.02 -54.29,61.25 11.13,16.7 19.48,43.15 23.66,62.64 1.39,5.57 2.78,18.09 1.39,23.67 -19.49,132.24 -32.01,125.27 -72.38,256.13 -22.28,72.38 -22.28,84.91 -57.08,182.35 -57.07,162.87 -40.37,101.62 -65.43,200.45 -15.3,62.65 -30.62,97.45 -62.63,128.07 -11.14,11.14 -32.02,22.28 -48.73,22.28 -36.19,0 -70.99,-27.85 -82.12,-50.12 -11.14,-22.27 -11.14,-40.37 -9.75,-61.25 0,-6.95 2.78,-12.52 6.96,-13.92 l 15.31,20.88 c 11.14,13.92 47.33,30.63 80.74,4.18 29.23,-23.66 33.41,-71 -2.78,-107.18 -20.89,-15.32 -40.38,-40.38 -87.71,-38.98 -69.6,1.39 -107.18,70.99 -116.92,98.83 -22.27,68.21 -2.78,167.04 65.42,225.51 52.9,45.94 75.18,58.47 129.46,58.47 121.11,0 64.04,-16.71 221.33,1.38 12.53,1.4 23.67,-4.17 27.84,-15.3 8.36,-15.32 6.96,-33.41 -1.38,-52.9"
         style="fill:#ffffff;fill-opacity:1;fill-rule:nonzero;stroke:none"
         id="path14" /><path
         d="m 5121.15,4190.45 c 33.41,36.2 61.24,36.2 75.17,32.02 104.4,-27.84 48.72,-185.14 -43.16,-165.65 -58.46,12.53 -65.42,96.05 -32.01,133.63 z m 135.03,-599.96 c 0,-66.82 -1.4,-130.85 29.23,-193.49 9.74,-20.88 13.92,-47.33 -2.79,-68.21 -8.35,-9.75 -18.1,-12.53 -29.23,-12.53 -22.27,0 -47.33,15.31 -66.81,15.31 -13.93,0 -30.63,-15.31 -61.26,-15.31 -12.52,0 -30.62,11.14 -34.79,16.71 -8.36,12.52 -2.79,29.23 5.56,41.76 4.18,8.35 8.35,18.09 11.14,27.83 16.7,66.82 11.13,137.82 11.13,206.03 0,54.29 0,118.32 0,172.61 0,30.62 2.79,68.21 -2.79,97.44 -2.77,22.27 -8.34,41.76 -32.01,52.9 -12.53,6.96 -19.49,19.49 -20.88,34.8 -2.78,30.62 29.23,45.93 64.04,38.97 15.31,-2.78 27.84,-12.52 38.97,-15.31 18.1,-5.57 40.37,6.96 58.47,11.14 12.53,4.17 37.58,6.96 36.19,-13.92 0,0 -4.17,-148.95 -4.17,-200.45 0,-62.65 0,-133.64 0,-196.28"
         style="fill:#ffffff;fill-opacity:1;fill-rule:nonzero;stroke:none"
         id="path16" /><path
         d="m 5556.84,3880.03 c -54.29,-8.35 -76.56,-133.64 -76.56,-203.23 0,-183.75 43.15,-238.04 91.88,-239.43 20.87,0 103,50.11 103,141.98 0,18.1 -1.38,47.33 -1.38,65.43 0,47.33 -2.79,97.44 -4.19,144.77 0,18.1 -18.09,107.19 -112.75,90.48 z m -153.12,-515.05 c -72.39,89.09 -77.96,243.61 -69.6,353.58 6.95,89.09 40.37,179.57 107.19,238.04 65.42,58.46 148.93,50.11 218.54,-1.4 11.14,-8.35 11.14,-16.7 23.67,-27.84 0,65.43 2.78,238.04 -4.19,325.74 -6.95,84.91 -45.93,62.64 -37.57,114.14 8.34,51.51 65.42,16.71 109.96,-5.57 19.49,-11.13 47.33,-15.31 65.43,-2.78 20.88,9.74 36.19,5.57 36.19,-27.84 1.39,-36.19 -18.1,-77.95 -19.49,-107.18 -1.38,-51.51 0,-50.12 -1.38,-101.62 v -414.83 c -1.4,-37.59 -4.19,-65.42 0,-263.09 1.38,-22.27 5.56,-38.98 23.66,-52.9 23.66,-20.88 32.01,-51.51 0,-68.21 -32.02,-16.71 -50.12,-5.57 -79.35,9.75 -9.74,5.56 -19.49,11.13 -30.63,9.74 -6.96,-1.39 -12.53,-6.96 -18.09,-9.74 -11.14,-5.57 -16.71,-16.71 -38.98,-18.1 -25.05,-1.4 -16.7,23.66 -18.09,48.72 0,5.56 0,25.05 2.79,29.23 -57.08,-72.38 -201.85,-109.97 -270.06,-27.84"
         style="fill:#ffffff;fill-opacity:1;fill-rule:nonzero;stroke:none"
         id="path18" /><path
         d="m 6085.8,3316.26 c -32.02,0 -38.97,19.49 -55.69,19.49 -13.91,0 -26.44,-20.88 -61.24,-20.88 -25.06,0 -54.29,15.31 -44.55,54.28 8.36,32.02 22.27,44.55 29.23,77.96 8.36,36.19 4.19,70.99 4.19,108.58 -1.4,73.78 -1.4,147.55 -1.4,221.33 v 361.93 58.46 c 0,37.59 0,82.13 -13.92,107.19 -12.53,23.67 -33.41,36.19 -33.41,61.25 0,19.49 13.92,25.05 26.45,26.45 41.76,0 116.93,-61.25 155.91,-34.8 11.13,6.96 26.45,12.52 34.8,-1.39 4.17,-5.57 5.56,-26.45 5.56,-26.45 0,-27.85 -12.53,-54.29 -16.7,-82.13 -13.91,-73.78 -11.13,-153.13 -11.13,-228.3 0,-84.91 0,-168.43 0,-251.96 0,-79.34 1.39,-157.29 1.39,-235.24 0,-26.46 0,-52.9 1.39,-77.96 2.78,-41.76 37.58,-52.9 37.58,-94.66 0,-19.49 -27.83,-43.15 -58.46,-43.15"
         style="fill:#ffffff;fill-opacity:1;fill-rule:nonzero;stroke:none"
         id="path20" /><path
         d="m 6479.74,4079.09 c -44.55,8.36 -47.33,75.17 -19.49,101.62 9.74,6.96 20.88,15.31 32.02,23.66 6.95,4.18 12.52,4.18 20.88,2.79 61.25,-15.32 52.89,-94.66 13.92,-115.54 -11.15,-6.96 -8.36,-22.27 -47.33,-12.53 z m -36.19,-569.34 c 12.53,45.94 18.09,133.64 18.09,212.98 0,65.43 -8.35,125.28 -34.81,154.52 -6.95,6.96 -15.3,11.14 -25.04,11.14 -65.43,0 -98.84,-155.91 -98.84,-200.46 -1.39,-29.23 4.18,-256.13 62.64,-256.13 36.2,0 71,48.72 77.96,77.95 z m -155.91,569.34 c -43.16,8.36 -47.33,75.17 -18.1,101.62 9.74,6.96 22.27,15.31 32.02,23.66 5.57,4.18 13.91,4.18 19.48,2.79 61.25,-15.32 54.29,-94.66 15.32,-115.54 -9.75,-6.96 -8.36,-22.27 -48.72,-12.53 z m -112.76,-331.3 c 1.4,30.63 6.96,59.86 18.1,89.09 8.35,19.48 57.07,172.61 201.84,172.61 76.56,0 172.62,-59.86 199.06,-185.14 4.18,-19.49 9.75,-84.91 9.75,-157.3 0,-43.15 -11.14,-222.72 -125.28,-313.2 -58.47,-44.55 -80.75,-38.98 -114.15,-38.98 -59.86,0 -100.23,34.8 -135.03,80.73 -41.76,57.08 -57.08,126.68 -57.08,246.4 0,32.01 1.4,66.81 2.79,105.79"
         style="fill:#ffffff;fill-opacity:1;fill-rule:nonzero;stroke:none"
         id="path22" /><path
         d="m 6954.41,3816 c -8.35,-2.79 -27.84,-2.79 -41.76,13.92 -16.71,23.66 -6.96,59.86 -57.08,59.86 -69.59,0 -80.73,-136.42 -80.73,-204.63 0,-84.91 23.66,-258.92 107.19,-258.92 20.87,0 38.97,9.74 51.5,55.68 5.57,20.88 29.23,32.02 38.98,32.02 23.67,0 33.41,-19.49 32.01,-44.55 0,-15.31 1.4,-16.7 12.53,-25.05 27.84,-20.89 50.12,-75.18 23.67,-79.35 -68.21,-12.53 -96.06,-61.25 -182.36,-55.68 -103.01,8.35 -228.3,100.23 -228.3,396.73 0,109.97 87.7,302.07 219.95,302.07 33.41,0 72.38,-6.96 105.79,-27.84 13.92,-8.36 23.66,-22.28 36.19,-32.02 12.53,-8.35 32.02,-4.17 44.55,-18.1 27.84,-38.97 -43.15,-70.99 -44.55,-70.99 -1.38,-1.39 -11.13,-34.8 -37.58,-43.15"
         style="fill:#ffffff;fill-opacity:1;fill-rule:nonzero;stroke:none"
         id="path24" /><path
         d="m 7591.97,3351.06 c 0,-9.74 -25.04,-34.8 -61.24,-34.8 -12.53,0 -23.66,5.56 -37.59,11.14 -4.17,1.39 -6.96,1.39 -9.74,1.39 -11.13,0 -16.71,-6.97 -33.41,-9.75 -8.35,-1.39 -15.31,-2.78 -22.27,-2.78 -20.88,0 -34.8,6.96 -34.8,19.49 0,1.39 1.39,4.17 1.39,6.96 19.48,59.85 26.45,52.89 26.45,133.63 0,52.9 2.78,101.62 2.78,148.95 0,180.96 -33.41,264.49 -61.25,264.49 -37.59,0 -96.05,-61.25 -103.01,-130.86 -5.57,-64.03 -6.95,-137.8 -6.95,-180.96 0,-34.8 1.38,-62.64 1.38,-83.52 0,-9.74 0,-16.71 -1.38,-23.67 0,-4.17 0,-8.35 0,-12.53 0,-51.5 41.76,-57.07 41.76,-93.26 0,-29.23 -27.85,-45.94 -52.91,-45.94 -33.4,0 -34.8,20.88 -48.71,20.88 -18.1,0 -23.67,-25.05 -62.65,-25.05 -32.01,0 -57.07,20.88 -57.07,47.33 0,19.48 13.92,40.36 20.88,59.86 11.13,32.01 13.92,64.03 13.92,97.44 0,54.29 -1.39,128.06 -1.39,180.96 -2.78,210.2 2.79,343.83 -12.53,552.64 -5.57,73.77 -38.98,65.42 -38.98,98.83 0,23.67 11.14,40.37 34.8,40.37 41.77,0 77.96,-44.55 123.89,-44.55 11.14,0 20.89,2.79 29.24,9.75 5.56,2.78 11.13,5.57 18.09,5.57 5.57,0 11.14,-2.79 16.7,-6.96 2.79,-12.53 4.19,-22.27 4.19,-33.41 0,-41.77 -22.28,-71 -22.28,-109.98 0,-47.32 0,-98.83 0,-146.15 0,-48.73 1.39,-97.45 1.39,-147.56 40.37,45.94 97.45,90.48 155.91,90.48 75.17,0 111.36,-68.21 118.32,-107.19 9.74,-41.76 16.71,-151.73 16.71,-217.15 0,0 -4.18,-212.98 -4.18,-214.38 0,-45.93 4.18,-87.69 34.8,-108.57 4.18,-2.79 9.74,-5.57 9.74,-11.14"
         style="fill:#ffffff;fill-opacity:1;fill-rule:nonzero;stroke:none"
         id="path26" /><path
         d="m 7896.83,3740.83 c 1.4,57.07 0,168.44 -57.07,168.44 -65.42,0 -73.78,-121.11 -73.78,-164.27 0,-5.56 0,-9.74 2.79,-11.13 4.17,-2.79 5.57,-4.18 6.95,-4.18 18.1,0 107.19,-1.39 121.11,-1.39 z m -272.84,-114.15 c 0,182.36 44.54,385.59 226.91,385.59 77.95,0 115.53,-61.24 143.38,-115.53 25.05,-48.73 37.58,-239.44 27.84,-256.14 -15.31,-1.39 -25.06,-1.39 -250.57,-1.39 -2.78,0 -8.36,1.39 -11.14,-1.39 -2.79,-2.79 -4.17,-72.39 0,-108.58 4.18,-48.72 30.63,-123.89 97.45,-123.89 59.86,0 87.69,83.52 65.42,125.28 -9.75,19.49 5.57,36.19 19.49,36.19 23.66,0 65.42,-52.89 65.42,-115.53 0,-79.35 -55.67,-143.38 -180.96,-143.38 -168.44,0 -203.24,150.33 -203.24,318.77"
         style="fill:#ffffff;fill-opacity:1;fill-rule:nonzero;stroke:none"
         id="path28" /><path
         d="m 8267.1,3945.45 c 15.31,0 34.8,34.81 55.68,47.34 18.1,11.13 41.76,20.87 64.03,20.87 45.94,0 80.74,-22.27 80.74,-91.87 0,-65.43 -68.21,-94.66 -103.01,-94.66 -50.11,0 -72.39,38.98 -87.7,38.98 -9.74,0 -13.92,-30.63 -13.92,-47.33 0,-68.21 1.39,-193.49 1.39,-261.7 0,-44.55 -2.77,-76.56 -2.77,-101.62 0,-32.02 4.17,-51.5 20.87,-69.6 9.74,-9.74 23.67,-16.71 23.67,-33.41 0,-15.31 -13.93,-36.19 -41.77,-36.19 -22.26,0 -44.54,23.66 -79.34,23.66 -26.45,0 -40.37,-22.27 -68.21,-22.27 -26.45,0 -43.15,18.1 -43.15,38.98 0,41.76 44.55,43.15 44.55,123.89 v 86.3 c 0,84.92 2.77,246.39 2.77,300.69 0,84.91 -54.29,89.09 -54.29,116.92 0,19.49 9.75,23.67 29.25,23.67 16.7,0 73.77,-13.92 91.86,-13.92 34.8,0 25.06,18.09 57.07,18.09 25.06,0 20.89,-15.31 20.89,-44.54 0,-11.13 0,-22.28 1.39,-22.28"
         style="fill:#ffffff;fill-opacity:1;fill-rule:nonzero;stroke:none"
         id="path30" /><path
         d="m 8546.91,4073.52 c 1.38,1.4 1.38,4.18 2.77,6.96 -16.7,9.75 -22.27,11.14 -37.58,30.63 -25.05,33.41 -1.39,76.56 26.45,77.95 33.4,1.39 43.15,6.96 61.25,-9.74 1.39,-1.39 4.18,-4.18 5.57,-6.96 54.28,-84.91 25.05,-182.36 -76.56,-169.83 -20.89,2.78 -33.42,18.1 -32.02,40.37 1.39,25.06 32.02,6.96 50.12,30.62"
         style="fill:#ffffff;fill-opacity:1;fill-rule:nonzero;stroke:none"
         id="path32" /><path
         d="m 8990.96,3526.46 c -9.75,-168.44 -115.55,-228.3 -229.69,-228.3 -141.99,0 -203.23,89.09 -196.28,208.81 4.18,70.99 61.25,141.98 151.74,141.98 68.2,0 122.49,-52.89 118.32,-122.49 -2.78,-45.94 -38.98,-83.52 -82.13,-83.52 -19.49,0 -41.76,27.83 -20.89,30.62 12.53,1.39 16.71,5.57 23.67,15.31 22.28,30.63 -8.35,70.99 -33.41,72.39 -37.59,1.39 -62.64,-19.49 -65.42,-62.64 -2.78,-50.12 27.83,-98.84 103.01,-98.84 64.03,0 107.19,43.16 111.36,119.72 5.57,84.91 -52.9,126.67 -111.36,179.57 -33.41,30.62 -66.82,61.25 -96.05,94.65 -23.67,26.45 -34.8,62.64 -33.42,97.45 4.19,65.43 58.48,119.71 125.29,119.71 48.72,0 72.38,-30.62 105.79,-13.92 13.92,8.35 20.89,25.06 33.42,33.41 4.17,1.39 8.35,1.39 12.52,1.39 1.4,0 4.18,0 6.97,-1.39 20.87,-5.57 23.66,-19.49 22.27,-44.54 -1.4,-16.71 -11.14,-55.69 -12.53,-87.7 -1.4,-20.88 0,-40.37 8.35,-61.25 -6.96,-13.92 -18.09,-23.67 -32.02,-23.67 -9.74,0 -20.88,2.79 -29.23,11.14 -8.36,8.35 -20.88,30.63 -23.66,45.94 -5.57,40.37 -62.65,61.25 -77.96,40.37 -41.76,-54.3 76.56,-129.46 112.76,-164.27 57.07,-57.06 114.14,-136.41 108.58,-219.93"
         style="fill:#ffffff;fill-opacity:1;fill-rule:nonzero;stroke:none"
         id="path34" /><path
         d="m 5077.67,5143.59 c -3.33,0 -6.65,1.25 -9.21,3.77 -5.16,5.08 -5.24,13.39 -0.15,18.56 338.53,344.44 822.2,541.49 1328.21,541.49 3.26,0 6.47,0 9.73,-0.02 502.09,-2.51 978.83,-199.9 1308.01,-541.56 5.03,-5.22 4.87,-13.54 -0.34,-18.57 -5.23,-5.01 -13.52,-4.89 -18.57,0.35 -324.29,336.59 -794.19,531.05 -1289.23,533.52 -3.19,0.01 -6.42,0.02 -9.6,0.02 -499.05,0 -975.84,-194.18 -1309.49,-533.63 -2.57,-2.62 -5.97,-3.93 -9.36,-3.93"
         style="fill:#ffffff;fill-opacity:1;fill-rule:nonzero;stroke:none"
         id="path36" /><path
         d="m 6382,1982.59 c -272.86,0 -543.91,55.19 -786.92,162.4 -197.86,98.91 -359.91,238.4 -516.62,373.3 l -15.07,12.98 c -5.51,4.72 -6.13,13.02 -1.39,18.51 4.7,5.51 12.99,6.14 18.51,1.39 l 15.08,-12.98 c 162.66,-140.01 316.29,-272.27 510.65,-369.44 709.1,-312.83 1590.3,-152.51 2094.74,381.48 4.99,5.27 13.3,5.52 18.56,0.54 5.28,-4.98 5.51,-13.3 0.53,-18.56 C 7461,2257.96 7113.33,2077.49 6714.65,2010.3 c -110,-18.55 -221.48,-27.71 -332.65,-27.71"
         style="fill:#ffffff;fill-opacity:1;fill-rule:nonzero;stroke:none"
         id="path38" /><path
         d="m 5228.66,5160.55 53.32,-53.25 -4.95,-4.72 c -15.37,11.44 -31.58,16.99 -48.65,16.61 -17.06,-0.37 -30.88,-5.62 -41.5,-15.76 -8.2,-7.81 -12.6,-16.19 -13.21,-25.13 -0.61,-8.95 1.81,-16.27 7.26,-21.99 3.45,-3.61 7.35,-6.02 11.73,-7.22 5.92,-1.56 13.24,-1.73 21.9,-0.53 6.31,0.95 19.53,4.57 39.62,10.85 28.11,8.83 49.49,12.25 64.13,10.25 14.58,-2.07 27,-8.5 37.26,-19.27 13.04,-13.67 18.92,-30.51 17.65,-50.51 -1.26,-20.02 -10.08,-37.84 -26.49,-53.48 -5.14,-4.91 -10.51,-9.01 -16.09,-12.35 -5.58,-3.31 -13.2,-6.84 -22.88,-10.53 -5.39,-2.07 -9.33,-4.3 -11.82,-6.67 -2.09,-1.99 -3.55,-4.91 -4.34,-8.73 -0.81,-3.85 -0.35,-8.09 1.34,-12.77 l -4.45,-4.26 -58.88,61.76 4.45,4.26 c 20.11,-14 39.55,-20.75 58.35,-20.25 18.78,0.49 34.01,6.29 45.66,17.41 9.02,8.58 13.85,17.87 14.52,27.87 0.67,10.01 -2.09,18.27 -8.3,24.78 -3.69,3.86 -8.27,6.63 -13.77,8.28 -5.5,1.68 -11.9,2.13 -19.19,1.4 -7.28,-0.73 -18.72,-3.53 -34.32,-8.42 -21.84,-6.86 -38.49,-10.83 -49.91,-11.89 -11.42,-1.07 -21.89,-0.1 -31.46,2.92 -9.55,3.01 -17.97,8.34 -25.25,15.99 -12.42,13.02 -18.2,28.68 -17.37,46.97 0.82,18.28 8.52,34.38 23.05,48.25 5.31,5.06 11.07,9.32 17.28,12.8 4.72,2.62 11.01,5.22 18.94,7.79 7.91,2.56 12.96,4.87 15.13,6.94 2.09,1.99 3.13,4.2 3.11,6.65 -0.01,2.42 -1.85,6.61 -5.48,12.5 l 3.61,3.45"
         style="fill:#e6ae24;fill-opacity:1;fill-rule:nonzero;stroke:none"
         id="path40" /><path
         d="m 5572.4,5138.46 3.5,-5.09 -97.25,-67.08 -3.49,5.07 6.17,4.26 c 5.39,3.73 9.08,7.67 11.03,11.88 1.5,2.91 1.82,6.37 0.95,10.37 -0.52,2.88 -3.97,8.99 -10.42,18.32 l -84.4,122.36 c -6.57,9.5 -11.16,15.09 -13.81,16.78 -2.64,1.68 -6.11,2.35 -10.41,2.03 -4.3,-0.33 -9.06,-2.3 -14.26,-5.89 l -6.18,-4.26 -3.49,5.09 97.25,67.08 3.51,-5.07 -6.18,-4.26 c -5.4,-3.73 -9.09,-7.67 -11.04,-11.87 -1.5,-2.92 -1.86,-6.42 -1.09,-10.46 0.52,-2.9 3.99,-9.01 10.42,-18.32 l 84.4,-122.36 c 6.57,-9.52 11.18,-15.11 13.89,-16.74 2.68,-1.66 6.17,-2.33 10.47,-1.99 4.3,0.33 9.05,2.3 14.26,5.89 l 6.17,4.26"
         style="fill:#e6ae24;fill-opacity:1;fill-rule:nonzero;stroke:none"
         id="path42" /><path
         d="m 5632.56,5422.17 159.54,-81.35 -40.26,88.41 c -5.62,12.35 -11.18,19.88 -16.71,22.6 -7.51,3.67 -16.94,2.78 -28.28,-2.62 l -2.55,5.62 67.94,30.93 2.56,-5.6 c -8.21,-5.07 -13.37,-9.18 -15.56,-12.31 -2.17,-3.12 -3.18,-7.06 -3.04,-11.82 0.16,-4.75 2.45,-11.99 6.86,-21.69 l 77.98,-171.22 -5.17,-2.34 -217.03,107.89 59.53,-130.73 c 5.38,-11.84 11.71,-18.58 19.01,-20.26 7.3,-1.7 14.44,-0.95 21.42,2.23 l 4.85,2.21 2.55,-5.6 -72.94,-33.22 -2.57,5.6 c 11.29,5.27 18.11,11.18 20.5,17.75 2.36,6.57 1.08,15.33 -3.91,26.26 l -66.08,145.13 -6.88,3.45 c -6.85,3.47 -12.31,5.33 -16.43,5.53 -4.12,0.19 -9.37,-1.03 -15.72,-3.69 l -2.57,5.62 72.96,33.22"
         style="fill:#e6ae24;fill-opacity:1;fill-rule:nonzero;stroke:none"
         id="path44" /><path
         d="m 6120.2,5581.98 16.59,-76.56 -6.35,-1.38 c -9.11,18.96 -21.32,32.33 -36.67,40.14 -15.33,7.81 -31.24,9.94 -47.75,6.35 -13.79,-2.99 -25.59,-9.7 -35.37,-20.11 -9.78,-10.42 -15.96,-22.63 -18.5,-36.57 -3.28,-17.89 -2.74,-36.87 1.62,-56.95 4.28,-19.76 10.69,-37.22 19.19,-52.37 8.52,-15.15 18.99,-25.72 31.44,-31.72 12.45,-5.99 27.12,-7.16 44.06,-3.49 13.91,3.02 25.98,8.82 36.22,17.4 10.24,8.6 20.16,21.72 29.74,39.37 l 4.13,-19.05 c -9.57,-15.61 -20.44,-27.78 -32.59,-36.49 -12.15,-8.7 -27.18,-15.02 -45.09,-18.9 -23.55,-5.11 -45.5,-4.93 -65.84,0.55 -20.36,5.48 -37.4,16 -51.19,31.54 -13.76,15.52 -22.82,33.3 -27.16,53.28 -4.55,21.04 -3.39,42.23 3.53,63.51 6.93,21.28 18.62,39.16 35.09,53.65 16.47,14.48 35.23,24.01 56.3,28.58 15.52,3.36 32.66,3.55 51.38,0.56 10.83,-1.74 17.62,-2.31 20.32,-1.72 3.47,0.75 6.21,2.68 8.2,5.78 2.02,3.1 2.78,7.52 2.35,13.21 l 6.35,1.39"
         style="fill:#e6ae24;fill-opacity:1;fill-rule:nonzero;stroke:none"
         id="path46" /><path
         d="m 6354.63,5581.09 1.48,-91.98 4.5,0.08 c 14.34,0.22 24.63,4.89 30.95,13.99 6.29,9.11 10.17,22.44 11.67,40.02 l 6.33,0.11 1.92,-118.3 -6.33,-0.1 c -1.54,12.86 -4.52,23.37 -8.92,31.52 -4.42,8.14 -9.47,13.59 -15.19,16.33 -5.7,2.74 -13.94,4.02 -24.73,3.85 l 1.04,-63.66 c 0.2,-12.42 0.85,-20.04 1.96,-22.78 1.08,-2.76 3.09,-5.01 6.01,-6.74 2.92,-1.74 7.6,-2.55 14.05,-2.45 l 13.49,0.22 c 21.1,0.35 37.93,5.5 50.49,15.5 12.57,9.96 21.46,25.01 26.69,45.09 l 6.17,0.1 -9.01,-71.98 -195.27,-3.17 -0.1,6.17 7.49,0.12 c 6.57,0.1 11.82,1.36 15.78,3.75 2.86,1.62 5.03,4.32 6.53,8.11 1.18,2.7 1.68,9.7 1.5,21.02 l -2.41,148.63 c -0.17,10.22 -0.55,16.49 -1.14,18.82 -1.16,3.86 -3.28,6.84 -6.31,8.89 -4.26,3.04 -10.08,4.5 -17.4,4.38 l -7.5,-0.12 -0.09,6.18 189.1,3.05 1.08,-66.8 -6.33,-0.1 c -3.49,16.27 -8.21,27.91 -14.14,34.93 -5.96,7 -14.28,12.09 -24.99,15.27 -6.28,1.89 -17.95,2.7 -35.05,2.42 l -23.32,-0.37"
         style="fill:#e6ae24;fill-opacity:1;fill-rule:nonzero;stroke:none"
         id="path48" /><path
         d="m 6908.15,5521.84 -51.8,-177.41 c -3.88,-13.33 -5.78,-22.01 -5.68,-26.04 0.1,-4 1.68,-7.75 4.72,-11.18 3.05,-3.43 8.67,-6.35 16.88,-8.74 l 4.97,-1.46 -1.74,-5.92 -114.2,33.36 1.71,5.92 5.76,-1.68 c 9.29,-2.72 16.22,-3.57 20.77,-2.6 4.58,0.98 8.09,3.13 10.58,6.47 2.46,3.33 5.7,11.81 9.68,25.46 l 32.84,112.45 c 2.94,10.02 4.28,16.43 4.05,19.21 -0.22,2.8 -1.38,5.45 -3.5,7.97 -2.09,2.53 -4.85,4.28 -8.26,5.29 -5.42,1.58 -12.55,1.81 -21.32,0.67 l -1.21,6.59 90.48,13.17 5.27,-1.53"
         style="fill:#e6ae24;fill-opacity:1;fill-rule:nonzero;stroke:none"
         id="path50" /><path
         d="m 7116.15,5303.66 c 6.41,10.71 11.67,20.34 15.78,28.84 8.77,18.2 14.85,36.19 18.22,53.92 1.8,9.87 1.34,17.97 -1.38,24.34 -1.44,3.42 -4.16,6.1 -8.16,8.01 -5.01,2.43 -9.95,2.15 -14.82,-0.81 -6.76,-4.02 -14.14,-14.34 -22.15,-30.94 -13.37,-27.72 -19.29,-48.41 -17.75,-62.12 1.02,-8.87 5.19,-15.07 12.48,-18.6 3.91,-1.87 9.83,-2.76 17.78,-2.64 z m -133.78,-57.22 2.01,4.22 c 18.45,-4.22 35.23,-5.41 50.38,-3.57 15.11,1.81 28.7,6.57 40.71,14.2 12.02,7.65 22.81,17.93 32.35,30.85 -7.75,-0.22 -14.1,0.1 -19.05,0.95 -4.95,0.84 -9.84,2.42 -14.64,4.75 -15.4,7.44 -25.56,19.17 -30.47,35.23 -4.89,16.05 -2.68,33.73 6.63,53.04 6.46,13.41 15.16,24.36 26.11,32.84 10.93,8.48 23.04,13.32 36.31,14.5 13.28,1.18 25.47,-0.91 36.57,-6.27 11.9,-5.74 21.52,-14.58 28.84,-26.5 7.34,-11.93 11.03,-25.85 11.11,-41.81 0.08,-15.94 -3.87,-32.17 -11.82,-48.68 -10.33,-21.42 -25.36,-39.45 -45.07,-54.13 -19.72,-14.65 -42.59,-23.02 -68.62,-25.07 -26.04,-2.07 -53.16,3.08 -81.35,15.45"
         style="fill:#e6ae24;fill-opacity:1;fill-rule:nonzero;stroke:none"
         id="path52" /><path
         d="m 7349.77,5171.88 c 22.76,32.33 35.86,51.3 39.27,56.92 7.99,13.26 11.82,23.34 11.5,30.22 -0.22,4.5 -2.88,8.54 -7.97,12.13 -3.91,2.74 -7.75,3.83 -11.56,3.26 -5.6,-0.81 -11.81,-4.84 -18.66,-12.03 -6.84,-7.2 -27.2,-34.84 -61.03,-82.89 -18.42,-26.15 -29.86,-44.32 -34.32,-54.5 -3.17,-7.41 -4.26,-13.1 -3.25,-17.06 1,-3.98 3.59,-7.44 7.77,-10.38 4.54,-3.19 8.97,-4.14 13.29,-2.84 7.4,2.41 15.11,8.72 23.14,18.96 z m 41.75,-29.83 c -12.97,-18.44 -27.69,-33.82 -44.12,-46.17 -10,-7.64 -19.82,-12.74 -29.47,-15.33 -9.62,-2.58 -19.05,-3.39 -28.28,-2.4 -9.22,1 -17.74,4.24 -25.55,9.74 -8.89,6.27 -15.34,14.2 -19.31,23.81 -3.98,9.58 -5.76,20.57 -5.34,32.92 0.35,8.97 2.64,19.66 6.86,32.03 5.9,16.65 14.04,32.37 24.48,47.18 14.14,20.08 29.94,36.53 47.4,49.37 14.42,10.63 28.95,16.32 43.63,17.07 14.65,0.75 27.26,-2.59 37.79,-10 10.71,-7.56 18.15,-18.27 22.31,-32.14 4.16,-13.86 4.06,-28.52 -0.28,-43.94 -5.87,-21.27 -15.91,-41.98 -30.12,-62.14"
         style="fill:#e6ae24;fill-opacity:1;fill-rule:nonzero;stroke:none"
         id="path54" /><path
         d="m 7528.57,5032.07 c -11.38,-10.3 -19.56,-17.99 -24.56,-23.06 -10.75,-10.93 -20.09,-22.53 -28.04,-34.82 -7.95,-12.28 -12.13,-22.26 -12.55,-29.98 -0.26,-5.5 1.38,-10 4.95,-13.51 3.63,-3.57 8.98,-4.65 16,-3.21 7,1.42 16.9,8.64 29.68,21.61 21.5,21.88 33.69,39.57 36.58,53.1 1.89,8.74 -0.06,15.96 -5.84,21.64 -3.16,3.12 -8.56,5.86 -16.22,8.23 z m 145.45,11.2 -3.27,-3.31 c -17.93,10.45 -34.05,17.08 -48.37,19.86 -14.32,2.8 -28.03,2.56 -41.12,-0.69 -13.08,-3.23 -26.99,-9.57 -41.68,-18.96 5.84,-1.04 10.24,-2.34 13.23,-3.9 6.71,-3.47 12.69,-7.79 17.92,-12.92 12.03,-11.85 17.77,-26.1 17.19,-42.76 -0.57,-16.65 -8.3,-32.55 -23.17,-47.68 -10.46,-10.61 -22.21,-18.21 -35.29,-22.8 -13.08,-4.58 -26,-5.35 -38.76,-2.31 -12.74,3.04 -23.67,9.04 -32.78,17.99 -9.9,9.74 -16.37,21.46 -19.43,35.13 -3.06,13.69 -1.82,28.07 3.77,43.16 5.56,15.09 14.4,28.78 26.47,41.05 17.77,18.06 38.64,30.61 62.62,37.63 23.97,7.04 48.49,7.32 73.52,0.85 25.03,-6.47 48.09,-19.92 69.15,-40.34"
         style="fill:#e6ae24;fill-opacity:1;fill-rule:nonzero;stroke:none"
         id="path56" /><path
         d="m 5253.39,2636.79 22.55,61.22 -60.59,-24.95 z m -3.39,-9.87 -44.46,42.35 -16.96,-7.2 c -5.62,-2.44 -9.7,-4.99 -12.25,-7.65 -3.35,-3.51 -4.4,-7.48 -3.15,-11.85 0.72,-2.59 4.14,-7.26 10.23,-13.99 l -3.27,-3.45 -41.88,39.9 3.28,3.43 c 5.16,-3.63 10.67,-5.28 16.49,-5.01 5.83,0.3 15.44,3.22 28.85,8.74 l 140.72,57.54 1.76,-1.68 -52.95,-146.47 c -4.99,-13.91 -7.29,-23.46 -6.92,-28.64 0.28,-3.93 2.17,-7.87 5.72,-11.84 l -3.27,-3.43 -60.89,58.01 3.27,3.45 2.51,-2.41 c 4.89,-4.65 8.97,-7.23 12.24,-7.77 2.31,-0.29 4.34,0.48 6.12,2.33 1.04,1.13 1.95,2.45 2.7,3.97 0.42,0.67 1.7,3.88 3.85,9.62 l 8.26,22.05"
         style="fill:#e6ae24;fill-opacity:1;fill-rule:nonzero;stroke:none"
         id="path58" /><path
         d="m 5514.02,2561.28 -40.02,-59.15 4.14,-2.81 c 6.37,-4.3 12.23,-6.86 17.55,-7.69 5.33,-0.81 10.93,0.1 16.79,2.72 5.86,2.65 11.84,7.54 17.89,14.68 l 3.73,-2.51 -48.94,-72.31 -3.71,2.51 c 7.89,14.57 10.32,26.05 7.3,34.46 -3.04,8.4 -8.34,15.17 -15.92,20.29 l -4.14,2.8 -29.82,-44.06 c -4.99,-7.36 -7.7,-12.25 -8.13,-14.64 -0.43,-2.38 0.08,-5.07 1.52,-8.06 1.44,-2.98 4.16,-5.84 8.21,-8.57 l 4.77,-3.23 -2.66,-3.94 -75.27,50.94 2.64,3.93 4.79,-3.23 c 4.16,-2.83 8.03,-4.36 11.6,-4.6 2.51,-0.24 5.07,0.49 7.69,2.23 1.94,1.18 5.33,5.36 10.22,12.58 l 64.09,94.72 c 4.99,7.38 7.71,12.23 8.18,14.6 0.46,2.36 -0.02,5.05 -1.46,8.02 -1.44,3 -4.18,5.84 -8.2,8.59 l -4.8,3.23 2.67,3.93 121.48,-82.2 -27.95,-41.3 -4.36,2.94 c 5.56,10.37 7.91,19.27 7.01,26.69 -0.93,7.43 -4.58,14.71 -11.01,21.83 -3.53,3.95 -11.03,9.78 -22.49,17.56 l -13.39,9.05"
         style="fill:#e6ae24;fill-opacity:1;fill-rule:nonzero;stroke:none"
         id="path60" /><path
         d="m 5626.98,2371.59 5.01,65.03 -51.52,-40.52 z m -0.57,-10.44 -54.32,28.64 -14.36,-11.56 c -4.75,-3.86 -7.99,-7.43 -9.68,-10.69 -2.29,-4.3 -2.22,-8.4 0.17,-12.27 1.42,-2.28 5.96,-5.85 13.65,-10.69 l -2.21,-4.18 -51.14,26.97 2.21,4.2 c 5.95,-2.09 11.69,-2.19 17.24,-0.32 5.52,1.85 13.98,7.28 25.36,16.25 l 119.71,93.72 2.15,-1.13 -11.03,-155.35 c -1,-14.75 -0.61,-24.56 1.15,-29.45 1.34,-3.71 4.26,-6.98 8.74,-9.82 l -2.21,-4.2 -74.41,39.21 2.21,4.2 3.06,-1.62 c 5.98,-3.13 10.61,-4.51 13.91,-4.14 2.31,0.34 4.06,1.64 5.24,3.91 0.73,1.36 1.25,2.88 1.54,4.55 0.2,0.77 0.57,4.2 1.09,10.3 l 1.93,23.47"
         style="fill:#e6ae24;fill-opacity:1;fill-rule:nonzero;stroke:none"
         id="path62" /><path
         d="m 5846.07,2277.5 82.25,92.73 66.83,-23.28 -1.56,-4.48 -5.33,1.86 c -4.83,1.67 -9.01,2.19 -12.5,1.5 -2.41,-0.44 -4.7,-1.76 -6.83,-4.01 -1.56,-1.62 -3.77,-6.51 -6.61,-14.67 l -37.69,-108.23 c -2.92,-8.41 -4.32,-13.81 -4.16,-16.22 0.16,-2.4 1.34,-4.87 3.53,-7.39 2.21,-2.53 5.6,-4.6 10.2,-6.2 l 5.32,-1.87 -1.56,-4.48 -85.72,29.86 1.56,4.48 5.32,-1.85 c 4.86,-1.68 9.02,-2.19 12.53,-1.5 2.41,0.41 4.69,1.79 6.86,4.12 1.56,1.64 3.77,6.55 6.65,14.79 l 42.39,121.69 -115.13,-127.84 -2.92,1.01 -12.13,170.95 -40.28,-115.63 c -2.8,-8.08 -4.34,-13.11 -4.58,-15.11 -0.35,-4.39 0.77,-8.48 3.4,-12.24 2.64,-3.77 7.69,-6.97 15.2,-9.57 l -1.56,-4.5 -56.17,19.59 1.56,4.48 1.69,-0.59 c 3.59,-1.35 7.2,-1.96 10.77,-1.8 3.59,0.16 6.55,1.01 8.9,2.54 2.35,1.54 4.61,4.05 6.84,7.54 0.46,0.83 1.97,4.91 4.54,12.25 l 36.17,103.89 c 2.9,8.3 4.26,13.65 4.11,16.02 -0.18,2.36 -1.36,4.83 -3.55,7.35 -2.21,2.53 -5.61,4.6 -10.2,6.2 l -5.21,1.81 1.56,4.48 67.08,-23.36 8.43,-124.32"
         style="fill:#e6ae24;fill-opacity:1;fill-rule:nonzero;stroke:none"
         id="path64" /><path
         d="m 6072.74,2160.37 -0.98,-4.63 -88.86,19.13 0.98,4.64 5.65,-1.23 c 4.93,-1.06 9.09,-1.02 12.46,0.08 2.43,0.69 4.54,2.35 6.31,4.93 1.36,1.82 2.96,6.99 4.8,15.51 l 24.06,111.8 c 1.85,8.68 2.56,14.22 2.13,16.59 -0.45,2.36 -1.91,4.67 -4.36,6.9 -2.44,2.23 -6.05,3.86 -10.81,4.89 l -5.64,1.2 0.99,4.64 88.88,-19.11 -1.01,-4.66 -5.64,1.22 c -4.93,1.07 -9.09,1.05 -12.47,-0.08 -2.42,-0.68 -4.57,-2.32 -6.45,-4.89 -1.34,-1.81 -2.94,-6.98 -4.77,-15.5 L 6053.95,2190 c -1.88,-8.7 -2.57,-14.22 -2.07,-16.61 0.49,-2.38 1.97,-4.69 4.41,-6.92 2.45,-2.23 6.06,-3.85 10.83,-4.87 l 5.62,-1.23"
         style="fill:#e6ae24;fill-opacity:1;fill-rule:nonzero;stroke:none"
         id="path66" /><path
         d="m 6281.06,2189.51 -13.34,-59.93 -153.4,17.3 0.54,4.71 5.74,-0.65 c 5.01,-0.55 9.15,-0.11 12.4,1.33 2.35,0.92 4.26,2.78 5.78,5.54 1.17,1.93 2.25,7.22 3.22,15.9 l 12.82,113.63 c 0.99,8.84 1.14,14.4 0.45,16.73 -0.69,2.31 -2.35,4.46 -5.01,6.43 -2.66,1.97 -6.41,3.23 -11.24,3.79 l -5.74,0.65 0.53,4.71 92.12,-10.39 -0.54,-4.72 -7.51,0.85 c -5.01,0.57 -9.15,0.14 -12.41,-1.3 -2.34,-0.95 -4.32,-2.78 -5.91,-5.55 -1.17,-1.93 -2.23,-7.21 -3.22,-15.87 l -12.41,-110.09 c -0.98,-8.83 -1.12,-14.51 -0.37,-17.06 0.75,-2.52 2.54,-4.56 5.38,-6.07 2.03,-1.01 7.12,-1.98 15.29,-2.9 l 14.4,-1.62 c 9.17,-1.03 16.98,-0.28 23.47,2.27 6.47,2.52 12.35,7.02 17.58,13.49 5.24,6.47 10.63,16.25 16.15,29.41 l 5.23,-0.59"
         style="fill:#e6ae24;fill-opacity:1;fill-rule:nonzero;stroke:none"
         id="path68" /><path
         d="m 6481.05,2299.06 -0.08,-4.76 c -5.74,-0.67 -10.18,-2.26 -13.3,-4.77 -4.32,-3.53 -11.24,-13.2 -20.73,-29.03 l -38.7,-62.33 -0.69,-42.06 c -0.14,-8.97 0.24,-14.55 1.15,-16.74 0.9,-2.19 2.72,-4.15 5.48,-5.86 2.74,-1.72 6.43,-2.61 11.05,-2.68 l 9.74,-0.16 -0.08,-4.76 -97.56,1.6 0.08,4.73 9.11,-0.13 c 5.11,-0.1 9.2,0.75 12.21,2.48 2.25,1.17 4.03,3.18 5.37,6.08 0.97,2.03 1.52,7.41 1.66,16.11 l 0.57,34.88 -39.69,75.15 c -7.87,14.83 -13.47,23.57 -16.74,26.23 -3.3,2.66 -7.74,4.09 -13.28,4.26 l 0.08,4.74 83.32,-1.34 -0.08,-4.76 -3.71,0.06 c -5.05,0.08 -8.58,-0.59 -10.61,-2.01 -2.03,-1.42 -3.06,-2.94 -3.1,-4.56 -0.04,-3.08 3.26,-10.87 9.88,-23.37 l 30.48,-58.07 32.13,51.93 c 7.99,12.69 12.01,21.13 12.09,25.31 0.02,2.31 -1.04,4.26 -3.25,5.84 -2.86,2.17 -8.19,3.55 -15.96,4.1 l 0.08,4.74 53.08,-0.85"
         style="fill:#e6ae24;fill-opacity:1;fill-rule:nonzero;stroke:none"
         id="path70" /><path
         d="m 6690.78,2332.75 10.71,-56.97 -5.19,-0.84 c -4.77,13.94 -12.66,24.49 -23.67,31.67 -10.98,7.16 -22.05,9.85 -33.19,8.03 -8.6,-1.4 -15.05,-4.81 -19.31,-10.22 -4.28,-5.42 -5.92,-11.12 -4.95,-17.1 0.63,-3.8 2.05,-7.04 4.32,-9.7 3.07,-3.57 7.65,-6.85 13.66,-9.84 4.42,-2.16 14.38,-5.59 29.89,-10.34 21.68,-6.61 36.75,-13.73 45.17,-21.34 8.34,-7.66 13.45,-17.14 15.28,-28.45 2.33,-14.34 -1.24,-27.57 -10.73,-39.74 -9.5,-12.15 -22.86,-19.63 -40.06,-22.43 -5.4,-0.89 -10.59,-1.16 -15.58,-0.85 -4.99,0.32 -11.36,1.4 -19.11,3.26 -4.32,1.02 -7.79,1.32 -10.4,0.9 -2.21,-0.37 -4.38,-1.59 -6.55,-3.66 -2.19,-2.09 -3.74,-5 -4.69,-8.7 l -4.7,-0.75 -10.55,64.77 4.7,0.77 c 6.66,-17.61 16.09,-30.35 28.24,-38.2 12.13,-7.85 24.32,-10.77 36.57,-8.78 9.43,1.54 16.55,5.32 21.32,11.4 4.78,6.05 6.61,12.51 5.49,19.33 -0.65,4.04 -2.37,7.79 -5.15,11.24 -2.76,3.45 -6.63,6.53 -11.56,9.23 -4.95,2.71 -13.43,5.88 -25.46,9.55 -16.87,5.13 -29.14,9.84 -36.85,14.14 -7.71,4.28 -13.95,9.45 -18.7,15.53 -4.77,6.05 -7.79,13.09 -9.09,21.12 -2.23,13.67 0.89,26.12 9.37,37.38 8.46,11.24 20.33,18.13 35.6,20.61 5.58,0.91 11.09,1.11 16.53,0.61 4.12,-0.37 9.27,-1.46 15.41,-3.27 6.15,-1.81 10.35,-2.54 12.62,-2.17 2.21,0.36 3.83,1.32 4.87,2.88 1.05,1.54 1.7,4.99 1.95,10.32 l 3.79,0.61"
         style="fill:#e6ae24;fill-opacity:1;fill-rule:nonzero;stroke:none"
         id="path72" /><path
         d="m 6799.43,2344.56 19.21,-68.11 3.33,0.93 c 10.61,3 17.36,8.5 20.26,16.51 2.88,8.01 3.15,18.7 0.81,32.07 l 4.69,1.32 24.72,-87.59 -4.68,-1.33 c -3.69,9.26 -7.97,16.49 -12.86,21.68 -4.87,5.19 -9.72,8.25 -14.5,9.15 -4.79,0.93 -11.18,0.26 -19.15,-1.99 l 13.3,-47.14 c 2.6,-9.21 4.59,-14.73 5.95,-16.57 1.36,-1.83 3.3,-3.12 5.8,-3.83 2.53,-0.7 6.16,-0.39 10.93,0.95 l 10,2.82 c 15.62,4.42 27.12,11.58 34.5,21.48 7.37,9.88 11.02,22.82 10.97,38.78 l 4.55,1.3 7.5,-55.3 -144.63,-40.84 -1.28,4.58 5.56,1.56 c 4.86,1.38 8.51,3.33 10.99,5.9 1.82,1.75 2.9,4.2 3.26,7.31 0.35,2.23 -0.66,7.54 -3.02,15.94 l -31.09,110.07 c -2.13,7.55 -3.65,12.15 -4.55,13.76 -1.64,2.65 -3.77,4.44 -6.43,5.37 -3.79,1.42 -8.39,1.36 -13.81,-0.16 l -5.56,-1.58 -1.29,4.58 140.05,39.53 13.97,-49.47 -4.7,-1.32 c -5.8,11.4 -11.6,19.13 -17.4,23.17 -5.82,4.07 -13.02,6.2 -21.6,6.43 -5.03,0.18 -13.88,-1.52 -26.55,-5.09 l -17.25,-4.87"
         style="fill:#e6ae24;fill-opacity:1;fill-rule:nonzero;stroke:none"
         id="path74" /><path
         d="m 7068.98,2458.75 23.63,-55.43 -4.61,-1.97 c -9.63,13 -20.79,21.34 -33.51,25.03 -12.73,3.67 -25.05,2.98 -37.01,-2.13 -9.98,-4.24 -17.93,-11.02 -23.8,-20.32 -5.9,-9.29 -8.8,-19.38 -8.7,-30.31 0.11,-13.99 3.27,-28.25 9.46,-42.81 6.1,-14.3 13.46,-26.56 22.1,-36.78 8.62,-10.22 18.06,-16.69 28.34,-19.41 10.26,-2.74 21.54,-1.48 33.79,3.75 10.08,4.28 18.36,10.41 24.85,18.38 6.49,7.97 12.09,19.33 16.79,34.05 l 5.88,-13.79 c -4.97,-13.2 -11.42,-23.95 -19.35,-32.29 -7.91,-8.34 -18.37,-15.29 -31.35,-20.81 -17.06,-7.28 -33.67,-10.32 -49.82,-9.11 -16.18,1.18 -30.59,6.66 -43.24,16.41 -12.66,9.74 -22.07,21.85 -28.24,36.33 -6.49,15.25 -8.68,31.42 -6.51,48.5 2.15,17.08 8.38,32.29 18.74,45.63 10.35,13.33 23.13,23.23 38.4,29.74 11.24,4.79 24.16,7.42 38.74,7.87 8.44,0.24 13.63,0.79 15.6,1.62 2.53,1.08 4.3,2.94 5.37,5.56 1.06,2.65 1,6.08 -0.14,10.34 l 4.59,1.95"
         style="fill:#e6ae24;fill-opacity:1;fill-rule:nonzero;stroke:none"
         id="path76" /><path
         d="m 7160.17,2494.1 38.78,-65.55 6.29,3.71 c 10.24,6.05 17.32,11.52 21.29,16.41 3.98,4.87 5.95,10.61 5.97,17.22 0,6.61 -2.3,13.87 -6.96,21.74 -6.75,11.4 -14.4,18.24 -22.96,20.53 -8.56,2.29 -18.76,-0.08 -30.59,-7.08 z m 43.42,-73.38 24.81,-41.93 c 4.79,-8.09 8.3,-12.9 10.53,-14.4 2.25,-1.52 4.97,-2.15 8.23,-1.94 3.23,0.24 8.28,2.39 15.11,6.43 l 2.42,-4.08 -76.57,-45.31 -2.42,4.09 c 6.92,4.08 11.22,7.49 12.92,10.23 1.71,2.76 2.44,5.45 2.22,8.11 -0.23,2.64 -2.74,8.01 -7.53,16.1 l -57.44,97.1 c -4.79,8.09 -8.3,12.9 -10.53,14.4 -2.25,1.52 -4.97,2.15 -8.23,1.91 -3.23,-0.21 -8.28,-2.36 -15.11,-6.41 l -2.42,4.09 69.51,41.12 c 18.11,10.71 32.09,17.3 41.95,19.77 9.86,2.46 19.43,1.89 28.72,-1.72 9.27,-3.59 16.59,-9.9 21.94,-18.96 6.53,-11.04 7.96,-22.5 4.28,-34.42 -2.37,-7.55 -7.46,-15.18 -15.23,-22.86 l 65.94,-29.37 c 8.58,-3.74 14.36,-5.85 17.3,-6.29 4.36,-0.49 8.6,0.32 12.7,2.45 l 2.41,-4.09 -47.11,-27.87 -88.58,39.65 -9.82,-5.8"
         style="fill:#e6ae24;fill-opacity:1;fill-rule:nonzero;stroke:none"
         id="path78" /><path
         d="m 7332.39,2607.4 43.43,-55.88 2.75,2.13 c 8.69,6.76 12.88,14.4 12.54,22.9 -0.34,8.52 -4.1,18.52 -11.32,30.02 l 3.84,3 55.88,-71.88 -3.84,-2.98 c -6.91,7.2 -13.59,12.27 -20.06,15.25 -6.49,2.98 -12.11,3.98 -16.91,3.03 -4.77,-0.96 -10.43,-3.98 -16.98,-9.07 l 30.06,-38.66 c 5.88,-7.55 9.81,-11.93 11.76,-13.12 1.95,-1.2 4.22,-1.65 6.8,-1.36 2.61,0.28 5.86,1.96 9.77,4.99 l 8.2,6.37 c 12.82,9.97 20.79,20.93 23.89,32.87 3.12,11.95 1.64,25.3 -4.44,40.08 l 3.75,2.92 27.75,-48.43 -118.64,-92.23 -2.9,3.75 4.55,3.53 c 3.99,3.09 6.63,6.29 7.95,9.6 1.03,2.31 1.13,4.97 0.28,8.01 -0.51,2.19 -3.45,6.73 -8.8,13.61 l -70.2,90.3 c -4.81,6.19 -7.95,9.88 -9.39,11.05 -2.5,1.83 -5.18,2.68 -7.99,2.54 -4.04,-0.1 -8.28,-1.87 -12.74,-5.34 l -4.56,-3.55 -2.89,3.74 114.87,89.32 31.56,-40.58 -3.84,-2.99 c -9.67,8.4 -17.95,13.37 -24.86,14.95 -6.9,1.56 -14.38,0.83 -22.42,-2.17 -4.74,-1.74 -12.29,-6.63 -22.69,-14.72 l -14.16,-11"
         style="fill:#e6ae24;fill-opacity:1;fill-rule:nonzero;stroke:none"
         id="path80" /><path
         d="m 7535.75,2804.57 33.16,-33.38 -3.27,-3.25 c -9.61,5.78 -17.24,9.17 -22.96,10.17 -5.7,1.03 -11.62,0.5 -17.74,-1.61 -3.37,-1.19 -7.95,-4.66 -13.71,-10.38 l -9.19,-9.13 94.5,-95.13 c 6.28,-6.32 10.54,-9.91 12.81,-10.79 2.26,-0.89 4.99,-0.91 8.2,-0.08 3.2,0.85 6.57,3 10.08,6.51 l 4.1,4.06 3.34,-3.37 -64.58,-64.15 -3.35,3.36 4.1,4.06 c 3.57,3.57 5.82,7.06 6.74,10.49 0.73,2.43 0.54,5.11 -0.61,8.09 -0.77,2.11 -4.24,6.25 -10.37,12.45 l -94.53,95.15 -8.91,-8.86 c -8.3,-8.26 -12.59,-16.01 -12.86,-23.25 -0.4,-10.16 3.23,-20.48 10.87,-30.95 l -3.45,-3.43 -33.16,33.37 110.79,110.05"
         style="fill:#e6ae24;fill-opacity:1;fill-rule:nonzero;stroke:none"
         id="path82" /><path
         d="m 4955.41,4513.3 c -13.79,0 -27.55,0.49 -41.27,1.49 -115.21,8.46 -207.76,55.65 -253.92,129.49 -28.54,45.65 -40.86,104.02 -34.68,164.35 9.12,89.07 57.14,170.26 128.46,217.19 74.66,49.11 172.97,56.94 250.46,20 80.86,-38.58 134.86,-125.92 131.31,-212.43 -3.7,-90.15 -70.93,-172.77 -156.38,-192.17 -47.71,-10.86 -97.55,-1.69 -133.38,24.49 -40.32,29.46 -61.13,79.95 -51.78,125.67 10.15,49.52 57.63,87.23 105.42,84.55 25.07,-1.51 49.83,-15.24 66.26,-36.74 15.45,-20.22 21.6,-44.79 16.89,-67.39 -1.48,-7.1 -8.33,-11.7 -15.53,-10.17 -7.1,1.48 -11.65,8.43 -10.17,15.53 3.15,15.13 -1.23,31.94 -12.05,46.09 -11.86,15.51 -29.42,25.41 -46.98,26.46 -34.9,1.9 -70.62,-27.02 -78.12,-63.6 -7.21,-35.27 9.87,-76.06 41.55,-99.2 29.78,-21.76 71.7,-29.23 112.07,-20.09 74.28,16.87 132.74,88.93 135.96,167.66 3.13,76.3 -44.72,153.46 -116.37,187.63 -69.38,33.1 -157.6,25.92 -224.72,-18.23 -64.81,-42.63 -108.46,-116.62 -116.78,-197.92 -5.58,-54.57 5.37,-107.03 30.83,-147.76 41.67,-66.67 126.8,-109.39 233.56,-117.21 109.09,-8.05 221.29,17.55 316.11,71.99 31.99,18.36 62.79,40.36 92.57,61.63 20.31,14.52 41.31,29.52 62.7,43.41 66.86,43.37 123.97,65.51 179.72,69.68 72.76,5.45 142.06,-24.73 176.83,-76.81 20.42,-30.55 27.66,-71.19 19.4,-108.69 -7.29,-33.02 -25.66,-59.98 -51.75,-75.9 -6.17,-3.77 -14.26,-1.83 -18.04,4.37 -3.77,6.19 -1.82,14.26 4.37,18.04 19.93,12.16 34.05,33.16 39.78,59.14 6.75,30.66 0.92,63.73 -15.59,88.46 -29.62,44.34 -89.77,69.97 -153.05,65.2 -51.18,-3.81 -104.36,-24.63 -167.36,-65.52 -20.91,-13.56 -41.67,-28.4 -61.74,-42.74 -30.31,-21.65 -61.64,-44.03 -94.76,-63.05 -87.38,-50.15 -188.92,-76.9 -289.83,-76.9"
         style="fill:#ffffff;fill-opacity:1;fill-rule:nonzero;stroke:none"
         id="path84" /><path
         d="m 6216.66,4527.41 c -21.58,-0.01 -43.16,3.46 -63.69,10.67 -61.48,21.6 -106.49,70.75 -142.42,115.99 -7.35,9.27 -14.59,18.68 -21.83,28.09 -28.34,36.85 -57.64,74.94 -94.17,103.14 -39.16,30.25 -100.24,54.7 -154.21,32.59 -36.59,-15 -60.54,-47.69 -74.2,-72.47 l -23,12.66 c 15.69,28.49 43.57,66.2 87.24,84.11 64.25,26.33 135.22,-1.37 180.22,-36.1 39.22,-30.29 69.58,-69.75 98.94,-107.91 7.16,-9.31 14.31,-18.61 21.58,-27.78 33.59,-42.31 75.37,-88.16 130.55,-107.55 64.74,-22.72 141.53,-2.59 186.75,49 19.3,22 29.83,46.55 29.68,69.1 -0.15,23.31 -11.91,47.36 -31.46,64.32 -17.93,15.57 -42.84,25.79 -70.12,28.77 -17.56,1.88 -43.42,1.6 -66.91,-10.67 -20.49,-10.7 -35.06,-29.02 -38.98,-48.97 -4.96,-25.3 8.62,-53.19 31.6,-64.87 23,-11.68 53.51,-6.23 71.03,12.69 l 19.27,-17.83 c -25.18,-27.21 -69.11,-35.08 -102.2,-18.28 -33.06,16.83 -52.61,56.95 -45.46,93.34 5.43,27.71 25.09,52.83 52.58,67.19 23.23,12.12 51.56,16.8 81.91,13.49 33.03,-3.6 62.24,-15.71 84.5,-35.04 25.15,-21.83 40.3,-53.23 40.5,-83.97 0.2,-28.98 -12.66,-59.73 -36.2,-86.59 -37.77,-43.08 -94.66,-67.12 -151.5,-67.12"
         style="fill:#ffffff;fill-opacity:1;fill-rule:nonzero;stroke:none"
         id="path86" /><path
         d="m 7827.05,4513.3 c -100.91,-0.01 -202.43,26.75 -289.82,76.9 -33.12,19.02 -64.45,41.4 -94.76,63.05 -20.07,14.34 -40.83,29.18 -61.74,42.74 -63.01,40.89 -116.19,61.71 -167.36,65.53 -63.29,4.61 -123.44,-20.87 -153.04,-65.21 -16.52,-24.73 -22.35,-57.8 -15.6,-88.46 5.73,-25.98 19.86,-46.98 39.78,-59.14 6.19,-3.78 8.15,-11.85 4.37,-18.04 -3.78,-6.2 -11.87,-8.13 -18.04,-4.37 -26.09,15.92 -44.46,42.88 -51.75,75.9 -8.26,37.5 -1.02,78.14 19.4,108.69 34.78,52.07 104.15,82.2 176.83,76.82 55.75,-4.18 112.85,-26.32 179.71,-69.69 21.4,-13.89 42.4,-28.89 62.71,-43.41 29.79,-21.27 60.58,-43.27 92.57,-61.63 94.82,-54.43 206.98,-80 316.1,-71.99 106.77,7.82 191.9,50.54 233.57,117.21 25.46,40.73 36.4,93.19 30.83,147.76 -8.32,81.3 -51.97,155.29 -116.79,197.92 -67.13,44.18 -155.36,51.34 -224.72,18.23 -71.64,-34.17 -119.49,-111.33 -116.36,-187.63 3.22,-78.73 61.68,-150.79 135.96,-167.66 40.41,-9.16 82.28,-1.67 112.07,20.09 31.68,23.14 48.76,63.93 41.54,99.2 -7.49,36.59 -43.11,65.71 -78.12,63.6 -17.56,-1.05 -35.12,-10.95 -46.98,-26.46 -10.81,-14.16 -15.19,-30.96 -12.04,-46.09 1.48,-7.09 -3.07,-14.05 -10.17,-15.53 -7.18,-1.45 -14.05,3.08 -15.53,10.17 -4.72,22.6 1.43,47.16 16.87,67.39 16.43,21.49 41.2,35.23 66.27,36.74 48.04,2.8 95.29,-35.03 105.42,-84.55 9.36,-45.71 -11.45,-96.21 -51.78,-125.67 -35.82,-26.18 -85.68,-35.31 -133.37,-24.49 -85.45,19.39 -152.68,102.01 -156.38,192.17 -3.55,86.51 50.45,173.86 131.3,212.43 77.51,36.93 175.81,29.09 250.46,-20 71.33,-46.92 119.35,-128.12 128.47,-217.2 6.17,-60.32 -6.15,-118.69 -34.68,-164.34 -46.16,-73.84 -138.71,-121.03 -253.93,-129.49 -13.71,-1 -27.49,-1.49 -41.27,-1.49"
         style="fill:#ffffff;fill-opacity:1;fill-rule:nonzero;stroke:none"
         id="path88" /><path
         d="m 6565.81,4527.41 c -56.84,-0.01 -113.72,24.04 -151.5,67.12 -23.55,26.87 -36.4,57.62 -36.21,86.59 0.22,30.75 15.36,62.15 40.5,83.97 22.27,19.33 51.49,31.45 84.51,35.04 30.34,3.29 58.68,-1.38 81.91,-13.49 27.47,-14.36 47.14,-39.47 52.58,-67.18 7.15,-36.4 -12.39,-76.52 -45.46,-93.35 -33.08,-16.8 -77.02,-8.94 -102.2,18.28 l 19.28,17.83 c 17.48,-18.92 48.02,-24.37 71.02,-12.69 22.98,11.68 36.56,39.57 31.6,64.87 -3.92,19.96 -18.5,38.27 -38.97,48.97 -23.5,12.27 -49.35,12.54 -66.92,10.67 -27.28,-2.98 -52.19,-13.2 -70.13,-28.77 -19.54,-16.96 -31.3,-41.01 -31.46,-64.32 -0.15,-22.55 10.39,-47.09 29.69,-69.1 45.23,-51.59 122,-71.71 186.74,-49 55.19,19.39 96.97,65.24 130.56,107.55 7.27,9.17 14.42,18.47 21.58,27.78 29.37,38.16 59.72,77.62 98.93,107.91 45,34.72 115.98,62.4 180.23,36.1 43.65,-17.9 71.53,-55.62 87.24,-84.1 l -23,-12.68 c -13.66,24.79 -37.63,57.48 -74.2,72.48 -53.98,22.09 -115.05,-2.33 -154.22,-32.59 -36.52,-28.2 -65.82,-66.29 -94.16,-103.14 -7.24,-9.41 -14.48,-18.82 -21.83,-28.09 -35.93,-45.24 -80.94,-94.39 -142.43,-115.99 -20.52,-7.21 -42.11,-10.67 -63.68,-10.67"
         style="fill:#ffffff;fill-opacity:1;fill-rule:nonzero;stroke:none"
         id="path90" /><path
         d="m 5737.35,4572.43 c 0,-29.02 -23.53,-52.55 -52.55,-52.55 -29.02,0 -52.55,23.53 -52.55,52.55 0,29.02 23.53,52.54 52.55,52.54 29.02,0 52.55,-23.52 52.55,-52.54"
         style="fill:#ffffff;fill-opacity:1;fill-rule:nonzero;stroke:none"
         id="path92" /><path
         d="m 7152.48,4572.43 c 0,-29.02 -23.52,-52.55 -52.54,-52.55 -29.02,0 -52.55,23.53 -52.55,52.55 0,29.02 23.53,52.54 52.55,52.54 29.02,0 52.54,-23.52 52.54,-52.54"
         style="fill:#ffffff;fill-opacity:1;fill-rule:nonzero;stroke:none"
         id="path94" /><path
         d="m 6557.09,4667.37 c 0,-20.3 -16.45,-36.75 -36.75,-36.75 -20.29,0 -36.74,16.45 -36.74,36.75 0,20.29 16.45,36.74 36.74,36.74 20.3,0 36.75,-16.45 36.75,-36.74"
         style="fill:#ffffff;fill-opacity:1;fill-rule:nonzero;stroke:none"
         id="path96" /><path
         d="m 6298.93,4667.37 c 0,-20.3 -16.45,-36.75 -36.74,-36.75 -20.3,0 -36.75,16.45 -36.75,36.75 0,20.29 16.45,36.74 36.75,36.74 20.29,0 36.74,-16.45 36.74,-36.74"
         style="fill:#ffffff;fill-opacity:1;fill-rule:nonzero;stroke:none"
         id="path98" /><path
         d="m 6444.26,4864.83 c 0,-29.29 -23.74,-53.02 -53.02,-53.02 -29.29,0 -53.02,23.73 -53.02,53.02 0,29.28 23.73,53.02 53.02,53.02 29.28,0 53.02,-23.74 53.02,-53.02"
         style="fill:#ffffff;fill-opacity:1;fill-rule:nonzero;stroke:none"
         id="path100" /><path
         d="m 4899.26,2623.23 c -50.59,0 -101.91,14.6 -145.26,43.11 -71.32,46.93 -119.34,128.12 -128.46,217.19 -6.18,60.33 6.14,118.7 34.68,164.35 46.16,73.84 138.71,121.03 253.92,129.48 114.17,8.33 231.78,-18.41 331.1,-75.4 33.12,-19.02 64.45,-41.41 94.76,-63.05 20.07,-14.34 40.83,-29.18 61.74,-42.74 63,-40.89 116.18,-61.71 167.36,-65.53 63.45,-4.69 123.44,20.87 153.05,65.21 16.51,24.73 22.34,57.8 15.59,88.46 -5.73,25.98 -19.85,46.98 -39.78,59.14 -6.19,3.78 -8.14,11.85 -4.37,18.04 3.79,6.19 11.89,8.13 18.04,4.37 26.09,-15.92 44.46,-42.88 51.75,-75.9 8.26,-37.5 1.02,-78.14 -19.4,-108.69 -34.77,-52.08 -104.13,-82.26 -176.83,-76.82 -55.75,4.17 -112.86,26.32 -179.72,69.69 -21.39,13.89 -42.39,28.89 -62.7,43.4 -29.78,21.28 -60.58,43.28 -92.57,61.63 -94.81,54.44 -207.03,80.06 -316.11,72 -106.76,-7.82 -191.89,-50.55 -233.56,-117.21 -25.46,-40.73 -36.41,-93.2 -30.83,-147.75 8.32,-81.31 51.97,-155.3 116.78,-197.93 67.13,-44.17 155.36,-51.32 224.72,-18.23 71.65,34.17 119.5,111.33 116.37,187.63 -3.22,78.72 -61.68,150.79 -135.96,167.66 -40.44,9.18 -82.31,1.67 -112.06,-20.09 -31.69,-23.14 -48.77,-63.93 -41.56,-99.2 7.5,-36.58 43.27,-65.92 78.12,-63.6 17.56,1.05 35.12,10.94 46.98,26.46 10.82,14.15 15.2,30.96 12.05,46.09 -1.48,7.1 3.07,14.05 10.17,15.53 7.12,1.49 14.04,-3.07 15.53,-10.17 4.71,-22.6 -1.44,-47.17 -16.89,-67.39 -16.43,-21.5 -41.19,-35.23 -66.26,-36.74 -47.97,-2.97 -95.27,35.04 -105.42,84.55 -9.35,45.72 11.46,96.21 51.79,125.67 35.79,26.15 85.64,35.34 133.37,24.49 85.45,-19.4 152.68,-102.02 156.38,-192.17 3.55,-86.51 -50.45,-173.86 -131.31,-212.43 -32.5,-15.49 -68.66,-23.11 -105.2,-23.11"
         style="fill:#ffffff;fill-opacity:1;fill-rule:nonzero;stroke:none"
         id="path102" /><path
         d="m 5784.65,2839.53 c -18.14,0 -36.46,3.14 -54.27,10.44 -31.17,12.77 -59.12,38.06 -80.82,73.11 -3.82,6.18 -1.92,14.26 4.25,18.08 6.16,3.84 14.26,1.92 18.08,-4.25 13.08,-21.15 35.58,-49.18 68.45,-62.64 53.95,-22.1 115.05,2.34 154.22,32.59 36.52,28.19 65.82,66.29 94.16,103.14 7.24,9.41 14.48,18.82 21.83,28.09 35.93,45.24 80.94,94.39 142.42,115.99 74.57,26.23 163.06,2.99 215.19,-56.45 23.54,-26.86 36.4,-57.61 36.2,-86.6 -0.2,-30.74 -15.35,-62.13 -40.5,-83.96 -22.26,-19.33 -51.47,-31.45 -84.5,-35.04 -30.35,-3.32 -58.67,1.37 -81.91,13.49 -27.49,14.36 -47.15,39.48 -52.58,67.19 -7.15,36.39 12.4,76.51 45.45,93.34 33.09,16.81 77.02,8.93 102.21,-18.28 4.92,-5.32 4.6,-13.63 -0.72,-18.55 -5.3,-4.92 -13.61,-4.62 -18.55,0.72 -17.52,18.93 -48.03,24.39 -71.03,12.69 -22.98,-11.68 -36.56,-39.57 -31.6,-64.87 3.92,-19.95 18.49,-38.27 38.98,-48.97 23.51,-12.28 49.37,-12.59 66.91,-10.67 27.28,2.98 52.19,13.2 70.12,28.77 19.55,16.96 31.31,41.01 31.46,64.32 0.15,22.55 -10.38,47.1 -29.68,69.1 -45.23,51.58 -122.03,71.71 -186.75,49 -55.18,-19.4 -96.96,-65.25 -130.55,-107.55 -7.27,-9.17 -14.42,-18.47 -21.58,-27.78 -29.36,-38.16 -59.72,-77.62 -98.93,-107.91 -32.52,-25.1 -78.63,-46.54 -125.96,-46.54"
         style="fill:#ffffff;fill-opacity:1;fill-rule:nonzero;stroke:none"
         id="path104" /><path
         d="m 7883.2,2623.23 c -36.53,0 -72.69,7.62 -105.2,23.11 -80.85,38.57 -134.85,125.92 -131.3,212.43 3.7,90.16 70.93,172.78 156.38,192.17 47.71,10.82 97.57,1.68 133.37,-24.49 40.33,-29.46 61.14,-79.97 51.78,-125.67 -10.13,-49.51 -57.45,-87.17 -105.42,-84.55 -25.07,1.51 -49.84,15.25 -66.27,36.74 -15.44,20.23 -21.59,44.79 -16.87,67.39 1.49,7.09 8.43,11.58 15.53,10.17 7.1,-1.48 11.65,-8.44 10.17,-15.53 -3.15,-15.13 1.23,-31.93 12.04,-46.09 11.86,-15.52 29.42,-25.41 46.98,-26.46 35.26,-2.08 70.64,27.02 78.12,63.6 7.22,35.27 -9.86,76.06 -41.54,99.2 -29.77,21.76 -71.67,29.28 -112.07,20.09 -74.28,-16.87 -132.74,-88.93 -135.96,-167.66 -3.13,-76.3 44.72,-153.46 116.36,-187.63 69.38,-33.1 157.58,-25.95 224.72,18.23 64.82,42.63 108.47,116.62 116.79,197.92 5.57,54.57 -5.37,107.03 -30.83,147.76 -41.67,66.66 -126.8,109.39 -233.57,117.21 -108.98,8.07 -221.28,-17.56 -316.1,-72 -31.99,-18.35 -62.78,-40.35 -92.57,-61.63 -20.31,-14.51 -41.31,-29.51 -62.7,-43.4 -66.87,-43.37 -123.97,-65.52 -179.72,-69.68 -72.57,-5.43 -142.05,24.72 -176.83,76.81 -20.42,30.55 -27.66,71.19 -19.4,108.69 7.29,33.02 25.66,59.98 51.75,75.9 6.15,3.77 14.25,1.85 18.04,-4.37 3.78,-6.19 1.82,-14.26 -4.37,-18.04 -19.92,-12.16 -34.05,-33.16 -39.78,-59.14 -6.75,-30.66 -0.92,-63.73 15.6,-88.46 29.61,-44.34 89.72,-69.93 153.04,-65.2 51.17,3.81 104.35,24.63 167.36,65.52 20.91,13.56 41.67,28.4 61.74,42.74 30.31,21.64 61.64,44.03 94.76,63.05 99.33,57 216.97,83.76 331.09,75.4 115.22,-8.45 207.77,-55.64 253.93,-129.48 28.53,-45.65 40.85,-104.02 34.68,-164.35 -9.12,-89.07 -57.14,-170.27 -128.47,-217.19 -43.35,-28.51 -94.67,-43.11 -145.26,-43.11"
         style="fill:#ffffff;fill-opacity:1;fill-rule:nonzero;stroke:none"
         id="path106" /><path
         d="m 6997.82,2839.53 c -47.33,0 -93.43,21.44 -125.94,46.54 -39.23,30.29 -69.58,69.75 -98.95,107.91 -7.16,9.31 -14.31,18.61 -21.58,27.78 -33.59,42.3 -75.37,88.15 -130.56,107.55 -64.75,22.72 -141.51,2.57 -186.74,-49 -19.3,-22.02 -29.84,-46.55 -29.69,-69.1 0.16,-23.31 11.92,-47.36 31.46,-64.32 17.94,-15.57 42.85,-25.79 70.13,-28.77 17.55,-1.9 43.4,-1.61 66.92,10.67 20.47,10.7 35.05,29.01 38.97,48.98 4.96,25.29 -8.62,53.18 -31.6,64.86 -22.99,11.7 -53.52,6.24 -71.02,-12.69 -4.93,-5.33 -13.23,-5.64 -18.56,-0.72 -5.32,4.92 -5.64,13.23 -0.72,18.55 25.19,27.23 69.12,35.07 102.2,18.28 33.07,-16.83 52.61,-56.95 45.46,-93.34 -5.44,-27.72 -25.11,-52.83 -52.58,-67.19 -23.21,-12.13 -51.53,-16.85 -81.91,-13.49 -33.02,3.58 -62.24,15.71 -84.51,35.04 -25.14,21.82 -40.28,53.21 -40.5,83.96 -0.19,28.98 12.66,59.73 36.21,86.6 52.11,59.43 140.64,82.63 215.18,56.45 61.49,-21.6 106.5,-70.75 142.43,-115.99 7.35,-9.27 14.59,-18.68 21.83,-28.09 28.34,-36.85 57.64,-74.95 94.17,-103.14 39.17,-30.25 100.25,-54.74 154.21,-32.59 25.83,10.59 49.36,32.02 68.04,61.98 3.85,6.16 11.95,8.02 18.09,4.2 6.15,-3.84 8.04,-11.94 4.2,-18.09 -21.62,-34.66 -49.41,-59.69 -80.37,-72.39 -17.81,-7.3 -36.13,-10.44 -54.27,-10.44"
         style="fill:#ffffff;fill-opacity:1;fill-rule:nonzero;stroke:none"
         id="path108" /><path
         d="m 5737.35,3119.73 c 0,29.02 -23.53,52.55 -52.55,52.55 -29.02,0 -52.55,-23.53 -52.55,-52.55 0,-29.02 23.53,-52.54 52.55,-52.54 29.02,0 52.55,23.52 52.55,52.54"
         style="fill:#ffffff;fill-opacity:1;fill-rule:nonzero;stroke:none"
         id="path110" /><path
         d="m 7152.48,3119.73 c 0,29.02 -23.52,52.55 -52.54,52.55 -29.02,0 -52.55,-23.53 -52.55,-52.55 0,-29.02 23.53,-52.54 52.55,-52.54 29.02,0 52.54,23.52 52.54,52.54"
         style="fill:#ffffff;fill-opacity:1;fill-rule:nonzero;stroke:none"
         id="path112" /><path
         d="m 6557.09,3024.79 c 0,20.3 -16.45,36.75 -36.75,36.75 -20.29,0 -36.74,-16.45 -36.74,-36.75 0,-20.29 16.45,-36.74 36.74,-36.74 20.3,0 36.75,16.45 36.75,36.74"
         style="fill:#ffffff;fill-opacity:1;fill-rule:nonzero;stroke:none"
         id="path114" /><path
         d="m 6298.93,3024.79 c 0,20.3 -16.45,36.75 -36.74,36.75 -20.3,0 -36.75,-16.45 -36.75,-36.75 0,-20.29 16.45,-36.74 36.75,-36.74 20.29,0 36.74,16.45 36.74,36.74"
         style="fill:#ffffff;fill-opacity:1;fill-rule:nonzero;stroke:none"
         id="path116" /><path
         d="m 6444.26,2827.33 c 0,29.28 -23.74,53.02 -53.02,53.02 -29.29,0 -53.02,-23.74 -53.02,-53.02 0,-29.28 23.73,-53.02 53.02,-53.02 29.28,0 53.02,23.74 53.02,53.02"
         style="fill:#ffffff;fill-opacity:1;fill-rule:nonzero;stroke:none"
         id="path118" /><path
         d="m 4724.28,4527.46 h -797.2 c -7.25,0 -13.13,5.88 -13.13,13.13 0,7.24 5.88,13.12 13.13,13.12 h 797.2 c 7.25,0 13.12,-5.88 13.12,-13.12 0,-7.25 -5.87,-13.13 -13.12,-13.13"
         style="fill:#ffffff;fill-opacity:1;fill-rule:nonzero;stroke:none"
         id="path120" /><path
         d="m 3910.04,4540.58 c 0,0 -21.25,-21.92 -47.46,-21.92 -26.21,0 -47.45,21.92 -47.45,21.92 0,0 21.24,21.93 47.45,21.93 26.21,0 47.46,-21.93 47.46,-21.93"
         style="fill:#ffffff;fill-opacity:1;fill-rule:nonzero;stroke:none"
         id="path122" /><path
         d="m 3928.5,4577.69 c 0,-10.2 -8.26,-18.47 -18.46,-18.47 -10.19,0 -18.46,8.27 -18.46,18.47 0,10.19 8.27,18.46 18.46,18.46 10.2,0 18.46,-8.27 18.46,-18.46"
         style="fill:#ffffff;fill-opacity:1;fill-rule:nonzero;stroke:none"
         id="path124" /><path
         d="m 3928.5,4503.48 c 0,-10.2 -8.26,-18.46 -18.46,-18.46 -10.19,0 -18.46,8.26 -18.46,18.46 0,10.2 8.27,18.46 18.46,18.46 10.2,0 18.46,-8.26 18.46,-18.46"
         style="fill:#ffffff;fill-opacity:1;fill-rule:nonzero;stroke:none"
         id="path126" /><path
         d="m 4724.28,3138.45 h -797.2 c -7.25,0 -13.13,5.87 -13.13,13.12 0,7.25 5.88,13.13 13.13,13.13 h 797.2 c 7.25,0 13.12,-5.88 13.12,-13.13 0,-7.25 -5.87,-13.12 -13.12,-13.12"
         style="fill:#ffffff;fill-opacity:1;fill-rule:nonzero;stroke:none"
         id="path128" /><path
         d="m 3910.04,3151.58 c 0,0 -21.25,-21.93 -47.46,-21.93 -26.21,0 -47.45,21.93 -47.45,21.93 0,0 21.24,21.92 47.45,21.92 26.21,0 47.46,-21.92 47.46,-21.92"
         style="fill:#ffffff;fill-opacity:1;fill-rule:nonzero;stroke:none"
         id="path130" /><path
         d="m 3928.5,3188.68 c 0,-10.2 -8.26,-18.46 -18.46,-18.46 -10.19,0 -18.46,8.26 -18.46,18.46 0,10.2 8.27,18.46 18.46,18.46 10.2,0 18.46,-8.26 18.46,-18.46"
         style="fill:#ffffff;fill-opacity:1;fill-rule:nonzero;stroke:none"
         id="path132" /><path
         d="m 3928.5,3114.47 c 0,-10.19 -8.26,-18.46 -18.46,-18.46 -10.19,0 -18.46,8.27 -18.46,18.46 0,10.2 8.27,18.46 18.46,18.46 10.2,0 18.46,-8.26 18.46,-18.46"
         style="fill:#ffffff;fill-opacity:1;fill-rule:nonzero;stroke:none"
         id="path134" /><path
         d="m 8855.38,4530.49 h -797.19 c -5.58,0 -10.09,4.51 -10.09,10.1 0,5.58 4.51,10.09 10.09,10.09 h 797.19 c 5.58,0 10.1,-4.51 10.1,-10.09 0,-5.59 -4.52,-10.1 -10.1,-10.1"
         style="fill:#ffffff;fill-opacity:1;fill-rule:nonzero;stroke:none"
         id="path136" /><path
         d="m 8872.43,4540.58 c 0,0 21.25,-21.92 47.46,-21.92 26.21,0 47.46,21.92 47.46,21.92 0,0 -21.25,21.93 -47.46,21.93 -26.21,0 -47.46,-21.93 -47.46,-21.93"
         style="fill:#ffffff;fill-opacity:1;fill-rule:nonzero;stroke:none"
         id="path138" /><path
         d="m 8853.97,4577.69 c 0,-10.2 8.26,-18.47 18.46,-18.47 10.2,0 18.46,8.27 18.46,18.47 0,10.19 -8.26,18.46 -18.46,18.46 -10.2,0 -18.46,-8.27 -18.46,-18.46"
         style="fill:#ffffff;fill-opacity:1;fill-rule:nonzero;stroke:none"
         id="path140" /><path
         d="m 8853.97,4503.48 c 0,-10.2 8.26,-18.46 18.46,-18.46 10.2,0 18.46,8.26 18.46,18.46 0,10.2 -8.26,18.46 -18.46,18.46 -10.2,0 -18.46,-8.26 -18.46,-18.46"
         style="fill:#ffffff;fill-opacity:1;fill-rule:nonzero;stroke:none"
         id="path142" /><path
         d="m 8855.38,3138.45 h -797.19 c -7.25,0 -13.12,5.87 -13.12,13.12 0,7.25 5.87,13.13 13.12,13.13 h 797.19 c 7.26,0 13.14,-5.88 13.14,-13.13 0,-7.25 -5.88,-13.12 -13.14,-13.12"
         style="fill:#ffffff;fill-opacity:1;fill-rule:nonzero;stroke:none"
         id="path144" /><path
         d="m 8872.43,3151.58 c 0,0 21.25,-21.93 47.46,-21.93 26.21,0 47.46,21.93 47.46,21.93 0,0 -21.25,21.92 -47.46,21.92 -26.21,0 -47.46,-21.92 -47.46,-21.92"
         style="fill:#ffffff;fill-opacity:1;fill-rule:nonzero;stroke:none"
         id="path146" /><path
         d="m 8853.97,3188.68 c 0,-10.2 8.26,-18.46 18.46,-18.46 10.2,0 18.46,8.26 18.46,18.46 0,10.2 -8.26,18.46 -18.46,18.46 -10.2,0 -18.46,-8.26 -18.46,-18.46"
         style="fill:#ffffff;fill-opacity:1;fill-rule:nonzero;stroke:none"
         id="path148" /><path
         d="m 8853.97,3114.47 c 0,-10.19 8.26,-18.46 18.46,-18.46 10.2,0 18.46,8.27 18.46,18.46 0,10.2 -8.26,18.46 -18.46,18.46 -10.2,0 -18.46,-8.26 -18.46,-18.46"
         style="fill:#ffffff;fill-opacity:1;fill-rule:nonzero;stroke:none"
         id="path150" /><path
         d="m 6577.23,4154.45 c 4.38,-35.27 -12.7,-71.74 -40.62,-86.7 0.03,0 0.04,0.01 0.06,0.01 0.36,0 -0.19,-0.8 -0.81,-1.53 -4.91,-5.79 -14.02,-16.56 -35.22,-16.56 -7.26,0 -15.7,1.24 -25.8,3.76 -4.2,0.79 -8.18,2.14 -12.04,3.75 9.04,-10.38 20.78,-17.4 34.26,-19.91 10.1,-2.52 18.54,-3.75 25.8,-3.75 21.2,0 30.31,10.77 35.22,16.56 0.62,0.73 1.17,1.52 0.81,1.52 -0.02,0 -0.04,-0.01 -0.06,-0.01 27.92,14.96 45,51.43 40.62,86.7 -3.32,26.75 -18.44,47.83 -42.13,59.58 10.86,-11.55 17.79,-26.34 19.91,-43.42"
         style="fill:#e6ae24;fill-opacity:1;fill-rule:nonzero;stroke:none"
         id="path152" /><path
         d="m 6991.61,3970.06 c 4.14,-4.19 8.22,-8.4 12.76,-11.93 0.56,-0.32 3.44,-0.95 6.78,-1.64 -6.46,6.49 -13.62,13.39 -22.41,18.68 -1.9,1.18 -3.83,2.11 -5.74,3.21 2.98,-2.8 5.95,-5.63 8.61,-8.32"
         style="fill:#e6ae24;fill-opacity:1;fill-rule:nonzero;stroke:none"
         id="path154" /><path
         d="m 6525.67,3973.33 c 40.7,-33.79 73.93,-84.31 87.97,-150.86 2.04,-9.52 4.13,-27.23 5.9,-49.44 3.53,14.62 8.04,29.66 13.41,44.75 -18.18,72.24 -59.26,124.45 -107.28,155.55"
         style="fill:#e6ae24;fill-opacity:1;fill-rule:nonzero;stroke:none"
         id="path156" /><path
         d="m 7024.84,3457.7 c 1.13,-0.96 2.57,-1.96 4.34,-3.28 15.16,-11.37 29.38,-30.83 37.24,-50.65 0.22,0.47 0.44,0.98 0.65,1.46 1.83,3.94 3.4,7.8 5.01,11.68 -6.28,8.41 -13.35,15.85 -20.68,21.35 -1.77,1.32 -3.21,2.32 -4.34,3.28 -0.06,0.94 -0.13,2.38 -0.15,4.5 1.2,21.36 -4.11,38.93 -15.35,50.81 -5.33,5.64 -11.88,9.56 -19.2,12.05 8.98,-11.69 13.41,-27.56 12.33,-46.7 0.01,-2.12 0.09,-3.56 0.15,-4.5"
         style="fill:#e6ae24;fill-opacity:1;fill-rule:nonzero;stroke:none"
         id="path158" /><path
         d="m 6385.86,4153.52 c 4.3,-34.71 -11.28,-69.17 -38.05,-84.7 -0.4,-0.45 -0.83,-1.06 -1.32,-1.64 -5.01,-6.11 -14.36,-17.51 -37.03,-17.51 -7.51,0 -16.21,1.23 -26.57,3.72 -4,0.78 -7.78,2.07 -11.45,3.59 8.9,-10.23 20.39,-17.19 33.67,-19.74 10.36,-2.5 19.06,-3.72 26.57,-3.72 22.67,0 32.02,11.39 37.03,17.5 0.49,0.58 0.93,1.2 1.32,1.64 26.77,15.53 42.35,49.99 38.05,84.7 -3.41,27.49 -19.08,49.09 -42.76,60.71 11.1,-11.75 18.36,-26.93 20.54,-44.55"
         style="fill:#e6ae24;fill-opacity:1;fill-rule:nonzero;stroke:none"
         id="path160" /><path
         d="m 5272,4129.89 c -6.51,-49.65 -46.89,-101 -103.24,-101 -6.55,0 -13.2,0.72 -19.79,2.11 -6.62,1.42 -12.86,3.71 -18.73,6.58 11.07,-11.36 24.96,-19.31 40.96,-22.73 6.58,-1.4 13.23,-2.11 19.78,-2.11 56.35,0 96.73,51.34 103.24,100.99 5.56,42.42 -12.73,77.99 -46.89,96.45 19.57,-19.88 28.87,-48.2 24.67,-80.29"
         style="fill:#e6ae24;fill-opacity:1;fill-rule:nonzero;stroke:none"
         id="path162" /><path
         d="m 6870.4,3442.4 c -36.02,41.25 -53.15,144.96 -53.15,220.53 0,91.8 18.72,184.43 60.54,184.43 1.26,0 2.24,-0.08 3.36,-0.12 -4.35,12.64 -7.83,16.28 -25.59,16.28 -41.81,0 -60.53,-92.63 -60.53,-184.43 0,-89.74 24.05,-219.45 75.37,-236.69"
         style="fill:#e6ae24;fill-opacity:1;fill-rule:nonzero;stroke:none"
         id="path164" /><path
         d="m 5082.5,3902.51 c 1.1,-1.13 2.17,-2.25 3.36,-3.3 -1.01,1.2 -2.14,2.3 -3.36,3.3"
         style="fill:#e6ae24;fill-opacity:1;fill-rule:nonzero;stroke:none"
         id="path166" /><path
         d="m 5561.46,3453.65 c -25.2,30.67 -38.77,99.34 -38.77,200.93 0,78.87 26.51,178.21 59.89,183.34 6.64,1.17 13.03,1.76 18.99,1.76 10.66,0 19.57,-2.07 27.25,-5.32 -10.42,12.05 -26,21.48 -49.47,21.48 -5.96,0 -12.35,-0.59 -19,-1.76 -33.37,-5.13 -59.88,-104.47 -59.88,-183.34 0,-128.25 21.58,-204.15 60.99,-217.09"
         style="fill:#e6ae24;fill-opacity:1;fill-rule:nonzero;stroke:none"
         id="path168" /><path
         d="m 7839.75,3883.01 c -41.04,0 -52.84,-88.4 -53.53,-139.25 3.99,-0.04 12.53,-0.14 22.79,-0.26 2.69,50.71 15.61,121.22 51.5,123.15 -2.4,4.57 -4.86,8 -7.26,10.45 -3.99,4.09 -8.15,5.91 -13.5,5.91"
         style="fill:#e6ae24;fill-opacity:1;fill-rule:nonzero;stroke:none"
         id="path170" /><path
         d="m 8715.59,3422.96 c -11.58,13.39 -17.48,31.74 -16.34,52.14 1.86,28.95 15.15,43.21 40.42,43.71 -5.22,10.01 -14.08,15.97 -18.51,16.22 l -2.39,0.04 c -26.18,0 -39.84,-14.33 -41.74,-43.81 -1.2,-21.44 5.17,-40.79 17.97,-54.32 5.56,-5.87 12.69,-10.32 20.59,-13.98"
         style="fill:#e6ae24;fill-opacity:1;fill-rule:nonzero;stroke:none"
         id="path172" /><path
         d="m 8752.91,3416.68 c -5.8,0 -11.7,1.32 -17.33,3.63 1.48,-1.75 3.18,-3.36 4.91,-4.95 6.12,-0.92 12.57,-1.43 19.39,-1.43 43.29,0 73.18,23.17 85.37,64.79 -16.67,-36.81 -52,-62.04 -92.34,-62.04"
         style="fill:#e6ae24;fill-opacity:1;fill-rule:nonzero;stroke:none"
         id="path174" /><path
         d="m 8956.83,3978.66 c -0.63,-7.84 -2.45,-17.83 -4.54,-29.36 -3.19,-17.63 -7.16,-39.54 -7.97,-58.09 -1.44,-21.51 0.65,-37.18 6.93,-52.89 l 3.37,-8.43 -4.06,-8.11 c -11.09,-22.14 -29.33,-34.83 -50.09,-34.83 -8.83,0 -17.19,1.69 -24.76,4.78 1.17,-1.4 2.34,-2.76 3.45,-3.87 11.01,-11 26.45,-17.07 43.53,-17.07 20.76,0 39,12.7 50.09,34.84 l 4.06,8.1 -3.37,8.43 c -6.28,15.71 -8.37,31.38 -6.93,52.89 0.81,18.55 4.78,40.46 7.97,58.09 2.09,11.54 3.91,21.52 4.54,29.36 0.93,16.76 2.42,50.46 -31.71,63.08 10.95,-15.33 10.14,-35.24 9.49,-46.92"
         style="fill:#e6ae24;fill-opacity:1;fill-rule:nonzero;stroke:none"
         id="path176" /><path
         d="m 4693.11,4226.76 c 50.07,-59.08 50.84,-149.51 44.25,-189.06 l -3.71,-20.68 c -5.6,-31.57 -11.4,-64.2 -22.19,-95.38 -5.29,-12.23 -9.31,-23.31 -13.33,-34.4 -4.33,-11.88 -8.64,-23.76 -13.69,-35.29 -10.12,-24.01 -12.21,-30.53 -3.93,-51.21 6.39,-13.48 12.49,-31.66 18.36,-49.24 4.15,-12.31 8.15,-24.33 12.17,-34.1 4.78,-12.25 10.04,-23.43 15.61,-35.28 0.98,-2.06 1.95,-4.14 2.94,-6.22 2.64,4.8 5.14,10.28 7.59,16.06 -1.31,3.08 -2.67,6.09 -3.92,9.28 -4.02,9.78 -8.02,21.79 -12.17,34.1 -5.87,17.58 -11.97,35.76 -18.36,49.24 -8.28,20.68 -6.19,27.2 3.93,51.21 5.05,11.53 9.36,23.41 13.68,35.29 4.03,11.09 8.05,22.17 13.34,34.4 10.79,31.18 16.59,63.81 22.19,95.38 l 3.71,20.68 c 6.59,39.55 5.82,129.98 -44.25,189.07 -10.89,12.86 -23.31,23.21 -37.11,31.15 5.2,-4.61 10.23,-9.49 14.89,-15"
         style="fill:#e6ae24;fill-opacity:1;fill-rule:nonzero;stroke:none"
         id="path178" /><path
         d="m 6365.58,3445.94 c 2.8,0 5.71,0.62 8.64,1.66 -23.02,49.88 -30.81,176.75 -28.85,218.12 0,47.97 33.72,172.5 75,179.58 -2.84,5.18 -5.73,9.25 -8.51,12.33 -3.99,3.96 -7.7,4.5 -10.08,4.5 -42.93,0 -78.63,-130.87 -78.63,-180.25 -2.21,-46.49 7.85,-201.28 38.09,-233.01 0.65,-0.69 2.9,-2.93 4.34,-2.93"
         style="fill:#e6ae24;fill-opacity:1;fill-rule:nonzero;stroke:none"
         id="path180" /><path
         d="m 7297.11,4354.42 c 3.31,-14.91 4.65,-25.86 4.65,-37.78 0,-24.4 -6.59,-44.96 -12.39,-63.1 -5.09,-15.88 -9.9,-30.88 -9.9,-46.88 V 4060.5 c 0,-24.09 0.34,-48.18 0.69,-72.45 0.12,-8.78 0.26,-17.59 0.36,-26.44 6.74,6 14.11,11.92 21.79,17.7 -0.31,21.75 -0.62,43.41 -0.62,65.04 v 146.16 c 0,15.99 4.81,30.99 9.9,46.87 5.8,18.14 12.39,38.7 12.39,63.1 0,11.93 -1.34,22.87 -4.66,37.79 l -1.61,7.27 -5.98,4.49 c -5.28,3.97 -10.43,6.77 -15.55,8.58 l 0.93,-4.19"
         style="fill:#e6ae24;fill-opacity:1;fill-rule:nonzero;stroke:none"
         id="path182" /><path
         d="m 6960.48,3790.68 c -4.42,-1.48 -9.98,-2.32 -15.74,-2.32 -8.41,0 -16.56,1.93 -24.14,5.2 11.9,-13.51 28.63,-21.36 46.36,-21.36 5.76,0 11.32,0.84 15.74,2.32 26.79,8.46 40.34,32.89 46.79,47.1 16.57,7.9 39.88,24.6 49.94,44.15 3.6,6.98 5.08,14.14 5.44,21.27 -0.01,2.67 -0.01,5.38 -0.02,8.03 -1.02,8.47 -4.09,16.8 -9.66,24.59 l -0.65,0.93 -0.77,0.85 c -6.31,7.02 -13.45,11.03 -20.41,13.67 11.54,-16.61 12.98,-35.45 3.85,-53.18 -10.06,-19.55 -33.37,-36.25 -49.94,-44.15 -6.45,-14.21 -20,-38.64 -46.79,-47.1"
         style="fill:#e6ae24;fill-opacity:1;fill-rule:nonzero;stroke:none"
         id="path184" /><path
         d="m 8012.25,3899.9 c 23.86,-46.44 43.79,-247.29 27.3,-275.53 l -5.23,-8.98 -10.38,-0.95 c -16.05,-1.47 -24.91,-1.49 -245.39,-1.49 -0.95,-21.45 -0.97,-62.4 1.91,-87.46 0.39,-4.28 7.67,-82.27 54.76,-101.66 -27.22,29.8 -32.23,82.02 -32.54,85.5 -2.88,25.06 -2.86,66.01 -1.91,87.46 220.48,0 229.34,0.02 245.39,1.49 l 10.38,0.95 5.23,8.98 c 16.49,28.24 -3.44,229.09 -27.3,275.53 -15.65,30.5 -40.62,79.12 -86.27,106.35 31.9,-27.64 51.15,-65.05 64.05,-90.19"
         style="fill:#e6ae24;fill-opacity:1;fill-rule:nonzero;stroke:none"
         id="path186" /><path
         d="m 8918.61,3738.74 c -7.67,7.37 -18.05,15.84 -30.06,25.65 -38.28,31.27 -102.33,83.6 -81.07,111.47 0.3,0.16 1.58,0.6 4.01,0.6 3.14,0 6.76,-0.74 10.48,-2.01 -8.11,11.38 -22.73,18.17 -32.7,18.17 -2.43,0 -3.71,-0.44 -4.01,-0.6 -21.26,-27.87 42.79,-80.2 81.07,-111.47 12.01,-9.81 22.39,-18.28 30.06,-25.65 55.94,-55.94 120.97,-141.99 114.72,-235.84 -9.09,-157.01 -100.14,-247.15 -249.83,-247.15 -51.3,0 -94.3,10.9 -128.68,32.18 37.3,-32.03 87.89,-48.34 150.9,-48.34 149.69,0 240.74,90.14 249.83,247.15 6.25,93.85 -58.78,179.9 -114.72,235.84"
         style="fill:#e6ae24;fill-opacity:1;fill-rule:nonzero;stroke:none"
         id="path188" /><path
         d="m 7054.12,3342.3 c -3.13,-1.56 -6.53,-2.75 -10.24,-3.33 -24.01,-4.41 -43,-14.32 -63.1,-24.82 -28.33,-14.79 -60.44,-31.54 -109,-31.55 -4.74,0 -9.63,0.16 -14.72,0.48 -21.16,1.72 -59.56,8.68 -99.89,34.46 47.92,-39.19 97.08,-48.59 122.11,-50.62 5.09,-0.32 9.98,-0.48 14.72,-0.48 48.56,0.01 80.67,16.76 109,31.55 19.18,10.02 37.47,19.36 59.96,24.04 -4.08,6.19 -7.16,12.97 -8.84,20.27"
         style="fill:#e6ae24;fill-opacity:1;fill-rule:nonzero;stroke:none"
         id="path190" /><path
         d="m 7372.81,3845.17 c -5.31,11.7 -9.93,17.47 -12.39,18.68 -22.35,-0.33 -74.87,-51.34 -81.05,-112.99 -6.35,-73.1 -6.84,-155.47 -6.84,-178.96 0,-19.42 0.43,-36.65 0.81,-51.69 0.31,-11.96 0.57,-22.57 0.57,-31.83 0,-9.62 0,-17.38 -1.38,-25.5 v -10.7 c 0,-20.54 8.28,-30.22 18.78,-42.46 10.23,-11.95 22.97,-26.83 22.97,-50.8 0,-41.4 -37.16,-66.13 -73.1,-66.13 -28.12,0 -41.2,11.9 -49.01,19.01 -0.38,0.34 -0.73,0.68 -1.09,1 -1.38,-0.98 -3.45,-2.6 -5.09,-3.88 -10.37,-8.09 -26.05,-20.31 -56.17,-20.31 -13.75,0 -26.5,3.07 -37.58,8.36 14.06,-15.01 35.38,-24.51 59.8,-24.51 30.12,0 45.8,12.21 56.17,20.3 1.64,1.28 3.71,2.9 5.09,3.88 0.36,-0.32 0.71,-0.66 1.09,-1 7.81,-7.11 20.89,-19.01 49.01,-19.01 35.94,0 73.1,24.73 73.1,66.13 0,23.97 -12.74,38.85 -22.97,50.81 -10.5,12.23 -18.78,21.91 -18.78,42.45 v 10.7 c 1.38,8.12 1.38,15.88 1.38,25.5 0,9.26 -0.26,19.87 -0.57,31.83 -0.38,15.04 -0.81,32.27 -0.81,51.69 0,23.49 0.49,105.86 6.84,178.96 5.39,53.82 46.09,99.51 71.22,110.47"
         style="fill:#e6ae24;fill-opacity:1;fill-rule:nonzero;stroke:none"
         id="path192" /><path
         d="m 6617.24,3583.31 c -11.27,-74.71 -42.01,-184.49 -126.35,-251.35 -47.87,-36.48 -75.66,-43.57 -107.6,-43.57 l -19.09,0.22 c -34.03,0 -61.78,10.18 -85.11,24.91 27.23,-23.24 61.82,-41.06 107.33,-41.06 l 19.09,-0.23 c 31.94,0 59.73,7.09 107.6,43.57 67.03,53.14 100.14,133.35 116.59,201.56 -5.01,20.21 -9.23,42.12 -12.46,65.95"
         style="fill:#e6ae24;fill-opacity:1;fill-rule:nonzero;stroke:none"
         id="path194" /><path
         d="m 6149.07,3432.97 c -1.36,24.5 -1.36,51.11 -1.36,76.83 0,38.87 -0.35,77.74 -0.69,116.78 -0.35,39.26 -0.71,78.7 -0.71,118.48 v 251.96 l -0.12,32.34 c -0.33,64.31 -0.67,130.81 11.05,192.96 1.5,10.03 4.28,20.14 7.24,30.84 4.75,17.18 9.66,34.94 9.62,55.61 -1.12,16.88 -4.06,29.02 -8.76,36.1 -5.47,8.81 -13.34,14.51 -22.66,16.72 0.13,-0.2 0.32,-0.35 0.45,-0.56 4.69,-7.08 7.63,-19.22 8.75,-36.11 0.04,-20.67 -4.87,-38.42 -9.62,-55.6 -2.96,-10.7 -5.74,-20.81 -7.24,-30.84 -11.72,-62.15 -11.38,-128.65 -11.05,-192.96 l 0.12,-32.35 v -251.95 c 0,-39.79 0.35,-79.22 0.71,-118.48 0.34,-39.04 0.69,-77.91 0.69,-116.78 0,-25.72 0,-52.33 1.36,-76.82 0.97,-14.63 7.46,-24.08 15.64,-36.04 9.79,-14.29 21.98,-32.08 21.98,-59.75 0,-32.57 -38.23,-63.35 -78.66,-63.35 -24.56,0 -38.8,9.23 -48.21,15.33 -2.57,1.66 -6.43,4.16 -7.48,4.16 -0.2,-0.25 -3.83,-2.45 -6.49,-4.06 -11.06,-6.7 -27.81,-16.82 -54.77,-16.82 -10.98,0 -21.45,2.23 -30.71,6.21 12.08,-13.94 31.49,-22.36 52.93,-22.36 26.96,0 43.71,10.11 54.77,16.81 2.67,1.61 6.29,3.81 6.49,4.06 1.05,0 4.91,-2.5 7.48,-4.16 9.41,-6.1 23.65,-15.33 48.2,-15.33 40.44,0 78.67,30.79 78.67,63.35 0,27.67 -12.19,45.46 -21.98,59.75 -8.18,11.96 -14.67,21.41 -15.64,36.03"
         style="fill:#e6ae24;fill-opacity:1;fill-rule:nonzero;stroke:none"
         id="path196" /><path
         d="m 7983.15,3560.21 c 24.73,-24.55 45.23,-68.01 45.23,-114.98 0,-79.08 -52.84,-163.58 -201.15,-163.58 -46.81,0 -83.62,10.88 -113.04,28.93 32.26,-27.77 75.81,-45.09 135.26,-45.09 148.31,0 201.15,84.5 201.15,163.58 0,60.64 -34.11,115.47 -67.45,131.14"
         style="fill:#e6ae24;fill-opacity:1;fill-rule:nonzero;stroke:none"
         id="path198" /><path
         d="m 8460.29,4000.1 c 17.93,-18.99 27.46,-47.34 27.46,-84.37 0,-80.17 -81.6,-114.85 -123.22,-114.85 -38.84,0 -64.36,19.61 -79.73,31.6 -0.98,-5.98 -1.67,-13.13 -1.67,-19.76 0,-34.06 0.33,-82.39 0.69,-130.7 0.33,-48.43 0.69,-96.85 0.69,-131 0,-25.89 -0.91,-47.19 -1.7,-65.99 -0.57,-13.41 -1.08,-25.15 -1.08,-35.63 0,-29.58 3.76,-43.16 15.52,-55.9 1.3,-1.27 3.33,-2.98 5.37,-4.7 9.42,-8.04 23.67,-20.18 23.67,-42.4 0,-27.12 -23.69,-56.4 -61.98,-56.4 -14.42,0 -27.12,6 -39.41,11.81 -12.92,6.09 -25.13,11.85 -39.92,11.85 -7.56,0 -13.87,-3.22 -23.57,-8.47 -11.33,-6.15 -25.43,-13.8 -44.66,-13.8 -9.85,0 -18.95,2.04 -27.11,5.48 11.42,-13.26 28.83,-21.63 49.33,-21.63 19.23,0 33.33,7.64 44.66,13.79 9.7,5.25 16.01,8.47 23.57,8.47 14.79,0 27,-5.76 39.92,-11.85 12.29,-5.81 24.99,-11.81 39.41,-11.81 38.29,0 61.98,29.28 61.98,56.4 0,22.22 -14.25,34.36 -23.67,42.4 -2.04,1.72 -4.07,3.43 -5.37,4.7 -11.76,12.74 -15.52,26.32 -15.52,55.9 0,10.48 0.51,22.22 1.08,35.63 0.79,18.8 1.7,40.1 1.7,65.99 0,34.15 -0.36,82.57 -0.69,131 -0.36,48.31 -0.69,96.64 -0.69,130.7 0,6.63 0.69,13.78 1.67,19.76 15.37,-11.99 40.89,-31.6 79.73,-31.6 41.62,0 123.22,34.68 123.22,114.85 0,50.03 -17.53,84.05 -49.68,100.53"
         style="fill:#e6ae24;fill-opacity:1;fill-rule:nonzero;stroke:none"
         id="path200" /><path
         d="m 8568.22,3959.02 c 42.01,0 75.01,18.01 92.94,50.72 22.71,41.48 16.51,99.11 -16.11,150.6 -2.55,4.6 -6.06,8.36 -9.33,11.6 -6.37,5.88 -12.53,10.01 -19.06,12.77 2.24,-2.45 4.44,-5.08 6.17,-8.21 32.62,-51.49 38.82,-109.12 16.11,-150.6 -17.93,-32.71 -50.93,-50.73 -92.94,-50.73 -6.27,0 -12.82,0.41 -19.67,1.25 -5.61,0.75 -10.7,2.34 -15.52,4.3 8.7,-10.94 21.69,-18.32 37.74,-20.46 6.85,-0.84 13.4,-1.24 19.67,-1.24"
         style="fill:#e6ae24;fill-opacity:1;fill-rule:nonzero;stroke:none"
         id="path202" /><path
         d="m 7615.83,3356.67 c -21.56,14.7 -25.98,47.37 -25.98,91.68 0.06,4.22 4.18,214.18 4.18,214.58 0,61.74 -6.55,175.97 -17.02,220.71 -6.23,34.85 -29.81,81.52 -72.59,106.42 28.86,-25.92 45.32,-61.99 50.37,-90.26 10.47,-44.74 17.02,-158.97 17.02,-220.71 0,-0.4 -4.12,-210.36 -4.18,-214.58 0,-44.31 4.42,-76.98 25.98,-91.68 6.33,-4.06 18.56,-11.91 18.56,-27.83 0,-24.76 -37.58,-55 -81.44,-55 -14.58,0 -26.97,5.12 -38.96,10.07 l -6.14,2.52 c 0.04,-0.06 -0.11,-0.06 -2.24,-0.06 -1.4,0 -2.94,-0.6 -6.95,-2.33 -5.3,-2.27 -12.54,-5.38 -23.13,-7.14 l -3.56,-0.6 c -7.39,-1.26 -14.39,-2.46 -22.03,-2.46 -10.69,0 -19.47,1.55 -26.74,4.07 7.54,-11.26 22.71,-20.23 48.96,-20.23 7.64,0 14.64,1.2 22.04,2.46 l 3.55,0.6 c 10.59,1.76 17.83,4.87 23.13,7.14 4.01,1.73 5.54,2.33 6.95,2.33 2.13,0 2.28,0 2.24,0.06 l 6.14,-2.51 c 11.99,-4.96 24.38,-10.08 38.95,-10.08 43.87,0 81.45,30.24 81.45,55 0,15.93 -12.23,23.77 -18.56,27.83"
         style="fill:#e6ae24;fill-opacity:1;fill-rule:nonzero;stroke:none"
         id="path204" /><path
         d="m 5913.98,3312.89 c -7.95,10.19 -16.03,28.03 -9.25,55.11 0.15,0.55 0.32,1.01 0.47,1.56 -4.04,5.39 -8.85,10.65 -14.54,15.65 -10.81,8.32 -14.5,17.23 -15.78,37.32 -3.71,174.84 -1.96,216.11 -0.53,249.27 l 0.53,13.41 v 414.27 c 0.71,26.03 0.69,38.7 0.69,51.36 0,12.39 0.02,24.78 0.69,49.85 0.49,10.5 4.2,24.47 8.14,39.27 5.74,21.59 12.25,46.07 11.37,68.88 0,38.13 -18.28,48.69 -30.72,51.54 4.92,-7.81 8.5,-18.87 8.5,-35.39 0.88,-22.8 -5.63,-47.28 -11.37,-68.87 -3.94,-14.8 -7.65,-28.77 -8.14,-39.27 -0.67,-25.07 -0.69,-37.46 -0.69,-49.85 0,-12.66 0.02,-25.33 -0.69,-51.37 v -414.26 l -0.54,-13.41 c -1.42,-33.17 -3.17,-74.43 0.54,-249.27 1.28,-20.09 4.97,-29 15.78,-37.32 20.98,-18.45 30.99,-40.19 28.52,-60.51 -2.13,-17.34 -13.3,-32.12 -31.48,-41.61 -13.69,-7.14 -26.49,-10.61 -39.14,-10.61 -20.23,-0.01 -36.37,8.5 -55.05,18.33 l -3.88,2.05 c -7.22,4.1 -13.44,7.65 -17.8,7.65 -0.25,-0.09 -2.68,-1.72 -4.3,-2.82 -2.78,-1.88 -5.52,-3.66 -8.22,-5.01 -2.21,-1.1 -4.02,-2.64 -5.96,-4.13 -7.61,-5.86 -19.13,-14.71 -40.79,-16.06 l -3.21,-0.1 c -3.25,0 -6.15,0.36 -8.8,0.9 1.33,-2.39 2.72,-4.76 4.76,-6.88 4.5,-4.64 12.69,-10.17 26.26,-10.17 l 3.21,0.09 c 21.66,1.35 33.18,10.2 40.79,16.06 1.94,1.49 3.75,3.03 5.96,4.13 2.7,1.35 5.44,3.13 8.22,5.01 1.62,1.1 4.05,2.73 4.3,2.82 4.36,0 10.58,-3.55 17.8,-7.65 l 3.88,-2.05 c 18.68,-9.83 34.82,-18.34 55.05,-18.33 12.65,0 25.45,3.47 39.14,10.61 13.32,6.95 22.78,16.79 27.77,28.35 -0.44,0.52 -1.06,0.91 -1.49,1.45"
         style="fill:#e6ae24;fill-opacity:1;fill-rule:nonzero;stroke:none"
         id="path206" /><path
         d="m 4006.06,4210.17 c -9.03,9.02 -25.13,16.67 -34.76,16.67 -27.61,0 -55.91,-22.69 -64.06,-38.96 -3.55,-7.07 -5.68,-13.59 -6.89,-19.99 9.49,6.23 21.56,10.87 34.96,12.4 11.91,14.67 35.22,30.4 58.21,30.4 4.5,0 10.42,-1.78 16.35,-4.48 -1.29,1.31 -2.46,2.67 -3.81,3.96"
         style="fill:#e6ae24;fill-opacity:1;fill-rule:nonzero;stroke:none"
         id="path208" /><path
         d="m 4580.94,3935.3 c -10.99,32.67 -20.15,74.07 -20.15,100.69 0,51.93 22.48,83.51 37.51,92.45 -6.16,13.81 -12.59,18.61 -14.64,19.05 -13.21,-0.23 -45.09,-33.62 -45.09,-95.34 0,-37.43 18.03,-104.41 33.93,-134.65 2.29,4.67 5.18,10.78 8.44,17.8"
         style="fill:#e6ae24;fill-opacity:1;fill-rule:nonzero;stroke:none"
         id="path210" /><path
         d="m 4001.3,4156.3 c 14.33,-14.47 23.27,-33.62 24.37,-54.39 1.42,-27.48 -9.85,-54.68 -31.74,-76.57 l -1.09,-1.09 -1.24,-0.92 c -3.47,-2.53 -6.88,-5.37 -10.43,-8.3 -17.66,-14.62 -41.84,-34.64 -85.47,-34.64 l -4.34,0.07 c -23.05,0.46 -43.16,7.21 -60.48,17.45 21.48,-18.94 49,-32.94 82.7,-33.61 l 4.34,-0.07 c 43.63,0 67.81,20.02 85.47,34.64 3.55,2.93 6.96,5.77 10.43,8.3 l 1.25,0.92 1.08,1.1 c 21.89,21.88 33.16,49.08 31.74,76.56 -1.27,23.82 -12.37,45.91 -30.7,60.74 -5.03,3.99 -10.39,7.1 -15.89,9.81"
         style="fill:#e6ae24;fill-opacity:1;fill-rule:nonzero;stroke:none"
         id="path212" /><path
         d="m 4585.07,3649.49 c -3.99,8.16 -8.06,16.3 -11.9,23.9 l -2.61,5.13 c -12.88,-21.74 -24.06,-39.54 -34.02,-55.41 -39.55,-62.95 -57.58,-91.68 -60.64,-164.8 -1,-17.04 5.45,-32.65 19.71,-48.1 l 1.32,-1.58 c 0.91,-1.19 2.68,-2.56 4.74,-4.15 2.58,-1.99 5.08,-3.99 7.31,-6.23 11.13,-12.01 15.15,-28.1 11.9,-45.88 -4.13,-22.57 -19.41,-43.98 -38.03,-53.28 -8.82,-4.02 -22.01,-8.41 -38.72,-8.41 -19.67,0 -38.98,6.36 -55.82,18.41 -0.85,0.63 -1.58,1.18 -2.23,1.65 -0.81,-0.43 -1.7,-0.94 -2.7,-1.49 -25.8,-16.49 -37.44,-19.38 -58.76,-19.38 l -17.84,0.13 c -13.78,0 -27.73,3.82 -40.08,10.15 15.45,-15.81 39.15,-26.31 62.3,-26.31 l 17.84,-0.13 c 21.32,0 32.96,2.89 58.76,19.38 1,0.55 1.89,1.06 2.7,1.5 0.65,-0.48 1.38,-1.03 2.23,-1.66 16.84,-12.05 36.15,-18.41 55.82,-18.41 16.71,0 29.9,4.39 38.72,8.41 18.62,9.3 33.9,30.71 38.03,53.28 3.25,17.78 -0.77,33.87 -11.9,45.89 -2.23,2.23 -4.73,4.23 -7.31,6.22 -2.05,1.59 -3.83,2.96 -4.74,4.15 l -1.32,1.58 c -14.26,15.45 -20.71,31.07 -19.7,48.1 3.05,73.12 21.08,101.85 60.63,164.8 7.91,12.59 16.63,26.51 26.31,42.54"
         style="fill:#e6ae24;fill-opacity:1;fill-rule:nonzero;stroke:none"
         id="path214" /><path
         d="m 4237.45,4378.02 c 10.22,-19.64 9.98,-42.57 -0.71,-68.19 -3.02,-9.91 -8.32,-20.48 -16.19,-32.25 -7.99,-15.24 -9.08,-29.56 -2.45,-44.72 13.39,-30.89 25.47,-61.5 37.12,-91.11 l 13.24,-33.38 c 3,-8.38 5.34,-16.04 7.63,-23.63 3.51,-11.56 6.83,-22.48 11.44,-32.49 47.26,-125.42 96.56,-283.15 115.14,-342.52 l 1.77,-5.7 c 3.9,5.77 7.84,11.49 11.78,17.2 -22.62,71.92 -65.3,205.62 -106.47,314.86 -4.61,10.01 -7.93,20.93 -11.44,32.49 -2.29,7.59 -4.63,15.25 -7.63,23.63 l -13.24,33.38 c -11.65,29.61 -23.73,60.22 -37.12,91.11 -6.63,15.16 -5.54,29.48 2.45,44.72 7.87,11.77 13.17,22.34 16.19,32.25 10.69,25.62 10.93,48.55 0.71,68.19 -5.05,12.21 -15,20.87 -27.43,24.8 1.95,-2.7 3.89,-5.43 5.21,-8.64"
         style="fill:#e6ae24;fill-opacity:1;fill-rule:nonzero;stroke:none"
         id="path216" /><path
         d="m 4754.26,3325.54 c -0.97,-0.9 -3.88,-3.44 -4.34,-3.85 l -0.14,-0.29 -1.44,-1.75 c -19.56,-23.82 -52.19,-32.31 -76.21,-32.31 -10.7,0 -19.88,1.87 -27.96,4.74 8.85,-13.15 26.47,-20.9 50.18,-20.9 24.02,0 56.65,8.49 76.21,32.31 l 1.44,1.75 0.14,0.29 c 0.25,0.22 1.18,1.04 2.16,1.9 -8.35,6.13 -15.2,12.78 -20.04,18.11"
         style="fill:#e6ae24;fill-opacity:1;fill-rule:nonzero;stroke:none"
         id="path218" /><path
         d="m 5650.62,3337.47 c -39.08,-28.07 -89.99,-45.28 -138.91,-45.28 -31.88,0 -61.02,7.54 -85.43,21.72 28,-24.46 65.34,-37.88 107.65,-37.88 41.51,0 84.37,12.49 120.3,33.39 -3.56,8.76 -3.89,18.64 -3.61,28.05"
         style="fill:#e6ae24;fill-opacity:1;fill-rule:nonzero;stroke:none"
         id="path220" /><path
         d="m 5298.6,3559.86 v 204.69 c 0,50.63 4.1,198.4 4.12,199.1 0.89,13.43 -4.32,22.04 -8.86,26.9 -3.46,3.69 -9.23,7.79 -17.84,9.95 2.85,-4.99 5.08,-11.67 4.48,-20.69 -0.02,-0.7 -4.12,-148.47 -4.12,-199.1 v -204.7 c -0.06,-61.91 -0.12,-120.39 27.18,-176.2 15.64,-33.52 13.71,-66.1 -5.15,-89.7 -11.76,-13.7 -26.33,-20.11 -45.01,-20.11 -14.8,0 -29.25,4.83 -42,9.09 -9.19,3.07 -18.69,6.23 -24.83,6.23 -1.8,-0.07 -7.26,-2.31 -11.24,-3.94 -11.72,-4.8 -27.74,-11.38 -50.01,-11.38 -9.09,0 -18.93,3.17 -27.7,7.5 8.38,-10.05 30.85,-23.66 49.93,-23.66 22.26,0 38.28,6.58 50,11.38 3.98,1.63 9.44,3.87 11.24,3.94 6.13,0 15.64,-3.16 24.83,-6.23 12.75,-4.26 27.2,-9.09 42,-9.09 18.68,0 33.25,6.41 45.01,20.12 18.86,23.59 20.79,56.17 5.15,89.69 -27.3,55.81 -27.24,114.29 -27.18,176.21"
         style="fill:#e6ae24;fill-opacity:1;fill-rule:nonzero;stroke:none"
         id="path222" /><path
         d="m 5069.53,4086.14 c 4.72,13.36 8.17,26.54 11.5,39.3 0.05,0.2 0.1,0.38 0.16,0.57 0.03,25.07 7.66,49.72 21.78,67.73 18.59,49.97 28.67,59.11 37.73,67.22 6.23,5.56 13.29,11.86 21.48,25.18 19.11,32.85 13.75,56.07 5.88,69.77 -6.26,10.89 -16.21,19.42 -28.92,25.23 2.52,-2.83 4.82,-5.81 6.7,-9.07 7.87,-13.7 13.23,-36.92 -5.88,-69.77 -8.19,-13.32 -15.25,-19.63 -21.48,-25.18 -11.5,-10.28 -24.56,-21.93 -54.66,-116.92 -1.65,-5.85 -3.33,-12.23 -5.01,-18.6 -3.33,-12.76 -6.78,-25.95 -11.5,-39.3 -1.61,-7.11 -5.44,-18.98 -11.75,-38.34 -7.2,-22.13 -16.18,-49.66 -21.52,-71 -1.05,-3.38 -3.22,-10.91 -6.65,-22.83 -21.01,-72.73 -84.9,-294.05 -136.3,-417.14 -14,-31.16 -20.71,-58.04 -20.71,-82.7 -1.26,-22.22 2.74,-51.44 12.74,-67.28 1.13,-1.3 2.31,-2.62 3.55,-3.99 6.65,-7.33 15.76,-17.4 23.61,-34.42 3.67,-9.63 11.92,-31.59 -5.8,-52.24 l -1.95,-2.27 -2.52,-1.6 c -17.89,-11.41 -33.87,-18.49 -58.17,-18.49 -13.41,0 -25.57,4.32 -36.15,10.2 13.56,-12.47 34.02,-26.36 58.37,-26.36 24.3,0 40.28,7.08 58.17,18.49 l 2.52,1.6 1.96,2.27 c 17.71,20.65 9.46,42.61 5.79,52.24 -7.85,17.02 -16.96,27.09 -23.61,34.42 -1.24,1.37 -2.42,2.69 -3.55,3.99 -10,15.84 -14,45.06 -12.74,67.28 0,24.66 6.71,51.54 20.71,82.7 51.4,123.09 115.29,344.41 136.3,417.14 3.43,11.92 5.6,19.45 6.65,22.83 5.34,21.34 14.32,48.88 21.52,71 6.31,19.37 10.14,31.23 11.75,38.34"
         style="fill:#e6ae24;fill-opacity:1;fill-rule:nonzero;stroke:none"
         id="path224" /><path
         d="m 6368.52,4927.96 c 0.22,0.2 0.43,0.42 0.64,0.64 4.68,4.94 4.48,12.74 -0.46,17.41 -1.9,1.83 -194.4,181.18 -474.99,154.45 -6.76,-0.66 -11.75,-6.68 -11.09,-13.45 0.65,-6.77 6.67,-11.74 13.45,-11.1 269.09,25.65 453.83,-146.05 455.67,-147.77 4.72,-4.48 12.05,-4.49 16.78,-0.18"
         style="fill:#e6ae24;fill-opacity:1;fill-rule:nonzero;stroke:none"
         id="path226" /><path
         d="m 5870.31,5090.82 c 0,0 -54.92,62.26 -135.18,-8.13 0,0 81.44,-65.46 135.18,8.13"
         style="fill:#e6ae24;fill-opacity:1;fill-rule:nonzero;stroke:none"
         id="path228" /><path
         d="m 5911.57,5118.05 c 0,0 -6.67,68.48 -94.74,60.15 0,0 22.93,-83.49 94.74,-60.15"
         style="fill:#e6ae24;fill-opacity:1;fill-rule:nonzero;stroke:none"
         id="path230" /><path
         d="m 5904.39,5068.26 c 0,0 -67.6,12.8 -84.3,-74.07 0,0 86.57,-1.4 84.3,74.07"
         style="fill:#e6ae24;fill-opacity:1;fill-rule:nonzero;stroke:none"
         id="path232" /><path
         d="m 5982.85,5062.86 c 0,0 -67.6,12.8 -84.3,-74.07 0,0 86.57,-1.4 84.3,74.07"
         style="fill:#e6ae24;fill-opacity:1;fill-rule:nonzero;stroke:none"
         id="path234" /><path
         d="m 6069.56,5051.06 c 0,0 -67.6,12.8 -84.3,-74.08 0,0 86.57,-1.39 84.3,74.08"
         style="fill:#e6ae24;fill-opacity:1;fill-rule:nonzero;stroke:none"
         id="path236" /><path
         d="m 6172.56,5019.77 c 0,0 -83.83,28.63 -120.94,-79.05 0,0 110.08,-17.55 120.94,79.05"
         style="fill:#e6ae24;fill-opacity:1;fill-rule:nonzero;stroke:none"
         id="path238" /><path
         d="m 6268.89,4966.93 c 0,0 -90.55,51.52 -157.13,-64.72 0,0 123.33,-44.5 157.13,64.72"
         style="fill:#e6ae24;fill-opacity:1;fill-rule:nonzero;stroke:none"
         id="path240" /><path
         d="m 5997.32,5123.98 c 0,0 7.58,68.38 -80.32,78.37 0,0 5.25,-86.42 80.32,-78.37"
         style="fill:#e6ae24;fill-opacity:1;fill-rule:nonzero;stroke:none"
         id="path242" /><path
         d="m 6093.4,5106.77 c 0,0 16.2,66.87 -69.72,87.93 0,0 -5.77,-86.39 69.72,-87.93"
         style="fill:#e6ae24;fill-opacity:1;fill-rule:nonzero;stroke:none"
         id="path244" /><path
         d="m 6189.69,5075.21 c 0,0 32.07,74.35 -63.42,115.86 0,0 -23.86,-99.08 63.42,-115.86"
         style="fill:#e6ae24;fill-opacity:1;fill-rule:nonzero;stroke:none"
         id="path246" /><path
         d="m 6304.04,5012.04 c 0,0 46.79,93 -72.61,153.5 0,0 -38.12,-125.34 72.61,-153.5"
         style="fill:#e6ae24;fill-opacity:1;fill-rule:nonzero;stroke:none"
         id="path248" /><path
         d="m 6413.96,4927.96 c -0.23,0.2 -0.44,0.42 -0.65,0.64 -4.68,4.94 -4.48,12.74 0.46,17.41 1.91,1.83 194.4,181.18 474.99,154.45 6.76,-0.66 11.75,-6.68 11.09,-13.45 -0.65,-6.77 -6.67,-11.74 -13.44,-11.1 -269.1,25.65 -453.84,-146.05 -455.68,-147.77 -4.72,-4.48 -12.04,-4.49 -16.77,-0.18"
         style="fill:#e6ae24;fill-opacity:1;fill-rule:nonzero;stroke:none"
         id="path250" /><path
         d="m 6912.16,5090.82 c 0,0 54.92,62.26 135.18,-8.13 0,0 -81.44,-65.46 -135.18,8.13"
         style="fill:#e6ae24;fill-opacity:1;fill-rule:nonzero;stroke:none"
         id="path252" /><path
         d="m 6870.9,5118.05 c 0,0 6.68,68.48 94.75,60.15 0,0 -22.94,-83.49 -94.75,-60.15"
         style="fill:#e6ae24;fill-opacity:1;fill-rule:nonzero;stroke:none"
         id="path254" /><path
         d="m 6878.08,5068.26 c 0,0 67.6,12.8 84.3,-74.07 0,0 -86.57,-1.4 -84.3,74.07"
         style="fill:#e6ae24;fill-opacity:1;fill-rule:nonzero;stroke:none"
         id="path256" /><path
         d="m 6799.62,5062.86 c 0,0 67.6,12.8 84.3,-74.07 0,0 -86.57,-1.4 -84.3,74.07"
         style="fill:#e6ae24;fill-opacity:1;fill-rule:nonzero;stroke:none"
         id="path258" /><path
         d="m 6712.92,5051.06 c 0,0 67.59,12.8 84.29,-74.08 0,0 -86.57,-1.39 -84.29,74.08"
         style="fill:#e6ae24;fill-opacity:1;fill-rule:nonzero;stroke:none"
         id="path260" /><path
         d="m 6609.91,5019.77 c 0,0 83.83,28.63 120.95,-79.05 0,0 -110.09,-17.55 -120.95,79.05"
         style="fill:#e6ae24;fill-opacity:1;fill-rule:nonzero;stroke:none"
         id="path262" /><path
         d="m 6513.58,4966.93 c 0,0 90.55,51.52 157.13,-64.72 0,0 -123.33,-44.5 -157.13,64.72"
         style="fill:#e6ae24;fill-opacity:1;fill-rule:nonzero;stroke:none"
         id="path264" /><path
         d="m 6785.15,5123.98 c 0,0 -7.57,68.38 80.32,78.37 0,0 -5.24,-86.42 -80.32,-78.37"
         style="fill:#e6ae24;fill-opacity:1;fill-rule:nonzero;stroke:none"
         id="path266" /><path
         d="m 6689.07,5106.77 c 0,0 -16.2,66.87 69.72,87.93 0,0 5.77,-86.39 -69.72,-87.93"
         style="fill:#e6ae24;fill-opacity:1;fill-rule:nonzero;stroke:none"
         id="path268" /><path
         d="m 6592.79,5075.21 c 0,0 -32.08,74.35 63.41,115.86 0,0 23.86,-99.08 -63.41,-115.86"
         style="fill:#e6ae24;fill-opacity:1;fill-rule:nonzero;stroke:none"
         id="path270" /><path
         d="m 6478.44,5012.04 c 0,0 -46.8,93 72.61,153.5 0,0 38.11,-125.34 -72.61,-153.5"
         style="fill:#e6ae24;fill-opacity:1;fill-rule:nonzero;stroke:none"
         id="path272" /><path
         d="m 6368.52,2769.84 c 0.22,-0.2 0.43,-0.41 0.64,-0.63 4.68,-4.94 4.48,-12.74 -0.46,-17.41 -1.9,-1.83 -194.4,-181.18 -474.99,-154.45 -6.76,0.66 -11.75,6.67 -11.09,13.44 0.65,6.77 6.67,11.75 13.45,11.1 269.09,-25.64 453.83,146.05 455.67,147.78 4.72,4.48 12.05,4.49 16.78,0.17"
         style="fill:#e6ae24;fill-opacity:1;fill-rule:nonzero;stroke:none"
         id="path274" /><path
         d="m 5870.31,2606.99 c 0,0 -54.92,-62.27 -135.18,8.13 0,0 81.44,65.45 135.18,-8.13"
         style="fill:#e6ae24;fill-opacity:1;fill-rule:nonzero;stroke:none"
         id="path276" /><path
         d="m 5911.57,2579.75 c 0,0 -6.67,-68.48 -94.74,-60.14 0,0 22.93,83.48 94.74,60.14"
         style="fill:#e6ae24;fill-opacity:1;fill-rule:nonzero;stroke:none"
         id="path278" /><path
         d="m 5904.39,2629.54 c 0,0 -67.6,-12.8 -84.3,74.08 0,0 86.57,1.39 84.3,-74.08"
         style="fill:#e6ae24;fill-opacity:1;fill-rule:nonzero;stroke:none"
         id="path280" /><path
         d="m 5982.85,2634.95 c 0,0 -67.6,-12.8 -84.3,74.07 0,0 86.57,1.4 84.3,-74.07"
         style="fill:#e6ae24;fill-opacity:1;fill-rule:nonzero;stroke:none"
         id="path282" /><path
         d="m 6069.56,2646.75 c 0,0 -67.6,-12.8 -84.3,74.07 0,0 86.57,1.4 84.3,-74.07"
         style="fill:#e6ae24;fill-opacity:1;fill-rule:nonzero;stroke:none"
         id="path284" /><path
         d="m 6172.56,2678.03 c 0,0 -83.83,-28.63 -120.94,79.05 0,0 110.08,17.56 120.94,-79.05"
         style="fill:#e6ae24;fill-opacity:1;fill-rule:nonzero;stroke:none"
         id="path286" /><path
         d="m 6268.89,2730.87 c 0,0 -90.55,-51.52 -157.13,64.72 0,0 123.33,44.51 157.13,-64.72"
         style="fill:#e6ae24;fill-opacity:1;fill-rule:nonzero;stroke:none"
         id="path288" /><path
         d="m 5997.32,2573.82 c 0,0 7.58,-68.38 -80.32,-78.37 0,0 5.25,86.43 80.32,78.37"
         style="fill:#e6ae24;fill-opacity:1;fill-rule:nonzero;stroke:none"
         id="path290" /><path
         d="m 6093.4,2591.03 c 0,0 16.2,-66.86 -69.72,-87.93 0,0 -5.77,86.39 69.72,87.93"
         style="fill:#e6ae24;fill-opacity:1;fill-rule:nonzero;stroke:none"
         id="path292" /><path
         d="m 6189.69,2622.6 c 0,0 32.07,-74.36 -63.42,-115.87 0,0 -23.86,99.08 63.42,115.87"
         style="fill:#e6ae24;fill-opacity:1;fill-rule:nonzero;stroke:none"
         id="path294" /><path
         d="m 6304.04,2685.76 c 0,0 46.79,-92.99 -72.61,-153.49 0,0 -38.12,125.34 72.61,153.49"
         style="fill:#e6ae24;fill-opacity:1;fill-rule:nonzero;stroke:none"
         id="path296" /><path
         d="m 6413.96,2769.84 c -0.23,-0.2 -0.44,-0.41 -0.65,-0.63 -4.68,-4.94 -4.48,-12.74 0.46,-17.41 1.91,-1.83 194.4,-181.18 474.99,-154.45 6.76,0.66 11.75,6.67 11.09,13.44 -0.65,6.77 -6.67,11.75 -13.44,11.1 -269.1,-25.64 -453.84,146.05 -455.68,147.78 -4.72,4.48 -12.04,4.49 -16.77,0.17"
         style="fill:#e6ae24;fill-opacity:1;fill-rule:nonzero;stroke:none"
         id="path298" /><path
         d="m 6912.16,2606.99 c 0,0 54.92,-62.27 135.18,8.13 0,0 -81.44,65.45 -135.18,-8.13"
         style="fill:#e6ae24;fill-opacity:1;fill-rule:nonzero;stroke:none"
         id="path300" /><path
         d="m 6870.9,2579.75 c 0,0 6.68,-68.48 94.75,-60.14 0,0 -22.94,83.48 -94.75,60.14"
         style="fill:#e6ae24;fill-opacity:1;fill-rule:nonzero;stroke:none"
         id="path302" /><path
         d="m 6878.08,2629.54 c 0,0 67.6,-12.8 84.3,74.08 0,0 -86.57,1.39 -84.3,-74.08"
         style="fill:#e6ae24;fill-opacity:1;fill-rule:nonzero;stroke:none"
         id="path304" /><path
         d="m 6799.62,2634.95 c 0,0 67.6,-12.8 84.3,74.07 0,0 -86.57,1.4 -84.3,-74.07"
         style="fill:#e6ae24;fill-opacity:1;fill-rule:nonzero;stroke:none"
         id="path306" /><path
         d="m 6712.92,2646.75 c 0,0 67.59,-12.8 84.29,74.07 0,0 -86.57,1.4 -84.29,-74.07"
         style="fill:#e6ae24;fill-opacity:1;fill-rule:nonzero;stroke:none"
         id="path308" /><path
         d="m 6609.91,2678.03 c 0,0 83.83,-28.63 120.95,79.05 0,0 -110.09,17.56 -120.95,-79.05"
         style="fill:#e6ae24;fill-opacity:1;fill-rule:nonzero;stroke:none"
         id="path310" /><path
         d="m 6513.58,2730.87 c 0,0 90.55,-51.52 157.13,64.72 0,0 -123.33,44.51 -157.13,-64.72"
         style="fill:#e6ae24;fill-opacity:1;fill-rule:nonzero;stroke:none"
         id="path312" /><path
         d="m 6785.15,2573.82 c 0,0 -7.57,-68.38 80.32,-78.37 0,0 -5.24,86.43 -80.32,78.37"
         style="fill:#e6ae24;fill-opacity:1;fill-rule:nonzero;stroke:none"
         id="path314" /><path
         d="m 6689.07,2591.03 c 0,0 -16.2,-66.86 69.72,-87.93 0,0 5.77,86.39 -69.72,87.93"
         style="fill:#e6ae24;fill-opacity:1;fill-rule:nonzero;stroke:none"
         id="path316" /><path
         d="m 6592.79,2622.6 c 0,0 -32.08,-74.36 63.41,-115.87 0,0 23.86,99.08 -63.41,115.87"
         style="fill:#e6ae24;fill-opacity:1;fill-rule:nonzero;stroke:none"
         id="path318" /><path
         d="m 6478.44,2685.76 c 0,0 -46.8,-92.99 72.61,-153.49 0,0 38.11,125.34 -72.61,153.49"
         style="fill:#e6ae24;fill-opacity:1;fill-rule:nonzero;stroke:none"
         id="path320" /></g></g></svg>
